<?xml version="1.0" encoding="UTF-8" standalone="no"?><svg xmlns="http://www.w3.org/2000/svg" xmlns:xlink="http://www.w3.org/1999/xlink" contentScriptType="application/ecmascript" contentStyleType="text/css" height="494px" preserveAspectRatio="none" style="width:1058px;height:494px;background:#FFFFFF;" version="1.1" viewBox="0 0 1058 494" width="1058px" zoomAndPan="magnify"><defs><filter height="300%" id="fg07231lbcisx" width="300%" x="-1" y="-1"><feGaussianBlur result="blurOut" stdDeviation="2.0"/><feColorMatrix in="blurOut" result="blurOut2" type="matrix" values="0 0 0 0 0 0 0 0 0 0 0 0 0 0 0 0 0 0 .4 0"/><feOffset dx="4.0" dy="4.0" in="blurOut2" result="blurOut3"/><feBlend in="SourceGraphic" in2="blurOut3" mode="normal"/></filter></defs><g><rect fill="#F8F8F8" filter="url(#fg07231lbcisx)" height="475.6094" rx="12.5" ry="12.5" style="stroke:#383838;stroke-width:1.5;" width="1039.1549" x="7" y="7"/><rect fill="#FFFFFF" height="442" rx="12.5" ry="12.5" style="stroke:#FFFFFF;stroke-width:1.0;" width="1033.1549" x="10" y="37.6094"/><line style="stroke:#383838;stroke-width:1.5;" x1="7" x2="1046.1549" y1="34.6094" y2="34.6094"/><text fill="#000000" font-family="Helvetica" font-size="14" font-weight="bold" lengthAdjust="spacing" textLength="110" x="471.5775" y="26.5332">TrafficLightFSM</text><ellipse cx="448.8489" cy="55.6094" fill="#000000" filter="url(#fg07231lbcisx)" rx="10" ry="10" style="stroke:none;stroke-width:1.0;"/><g id="TrafficLightFSM.OFF"><rect fill="#F8F8F8" filter="url(#fg07231lbcisx)" height="50" rx="12.5" ry="12.5" style="stroke:#383838;stroke-width:1.5;" width="50" x="423.8489" y="102.6094"/><line style="stroke:#383838;stroke-width:1.5;" x1="423.8489" x2="473.8489" y1="130.2188" y2="130.2188"/><text fill="#000000" font-family="Helvetica" font-size="14" font-weight="bold" lengthAdjust="spacing" textLength="29" x="434.3489" y="122.1426">OFF</text></g><g id="TrafficLightFSM.RED"><rect fill="#F8F8F8" filter="url(#fg07231lbcisx)" height="50" rx="12.5" ry="12.5" style="stroke:#383838;stroke-width:1.5;" width="50" x="424.8489" y="206.6094"/><line style="stroke:#383838;stroke-width:1.5;" x1="424.8489" x2="474.8489" y1="234.2188" y2="234.2188"/><text fill="#000000" font-family="Helvetica" font-size="14" font-weight="bold" lengthAdjust="spacing" textLength="29" x="435.3489" y="226.1426">RED</text></g><g id="TrafficLightFSM.GREEN"><rect fill="#F8F8F8" filter="url(#fg07231lbcisx)" height="50" rx="12.5" ry="12.5" style="stroke:#383838;stroke-width:1.5;" width="69" x="98.3485" y="310.6094"/><line style="stroke:#383838;stroke-width:1.5;" x1="98.3485" x2="167.3485" y1="338.2188" y2="338.2188"/><text fill="#000000" font-family="Helvetica" font-size="14" font-weight="bold" lengthAdjust="spacing" textLength="49" x="108.3485" y="330.1426">GREEN</text></g><g id="TrafficLightFSM.FLASHING_ON"><rect fill="#F8F8F8" filter="url(#fg07231lbcisx)" height="50" rx="12.5" ry="12.5" style="stroke:#383838;stroke-width:1.5;" width="119" x="502.3489" y="310.6094"/><line style="stroke:#383838;stroke-width:1.5;" x1="502.3489" x2="621.3489" y1="338.2188" y2="338.2188"/><text fill="#000000" font-family="Helvetica" font-size="14" font-weight="bold" lengthAdjust="spacing" textLength="99" x="512.3489" y="330.1426">FLASHING_ON</text></g><g id="TrafficLightFSM.AMBER"><rect fill="#F8F8F8" filter="url(#fg07231lbcisx)" height="50" rx="12.5" ry="12.5" style="stroke:#383838;stroke-width:1.5;" width="71" x="97.3485" y="414.6094"/><line style="stroke:#383838;stroke-width:1.5;" x1="97.3485" x2="168.3485" y1="442.2188" y2="442.2188"/><text fill="#000000" font-family="Helvetica" font-size="14" font-weight="bold" lengthAdjust="spacing" textLength="51" x="107.3485" y="434.1426">AMBER</text></g><g id="TrafficLightFSM.FLASHING_OFF"><rect fill="#F8F8F8" filter="url(#fg07231lbcisx)" height="50" rx="12.5" ry="12.5" style="stroke:#383838;stroke-width:1.5;" width="127" x="555.3489" y="414.6094"/><line style="stroke:#383838;stroke-width:1.5;" x1="555.3489" x2="682.3489" y1="442.2188" y2="442.2188"/><text fill="#000000" font-family="Helvetica" font-size="14" font-weight="bold" lengthAdjust="spacing" textLength="107" x="565.3489" y="434.1426">FLASHING_OFF</text></g><!--MD5=[00724ca3c9432e62f7505b1f2eb4cf5b]
link *start*TrafficLightFSM to OFF--><path d="M448.8489,65.7604 C448.8489,73.7954 448.8489,85.9354 448.8489,97.2634 " fill="none" id="*start*TrafficLightFSM-to-OFF" style="stroke:#383838;stroke-width:1.0;"/><polygon fill="#383838" points="448.8489,102.3934,452.8489,93.3934,448.8489,97.3934,444.8489,93.3934,448.8489,102.3934" style="stroke:#383838;stroke-width:1.0;"/><!--MD5=[4a4d81881a2961b63b71121a82b0b7cb]
link OFF to RED--><path d="M435.0169,152.8744 C430.4509,163.6964 427.1519,176.6724 429.8489,188.6094 C430.8419,193.0064 432.3529,197.4824 434.1079,201.7934 " fill="none" id="OFF-to-RED" style="stroke:#383838;stroke-width:1.0;"/><polygon fill="#383838" points="436.0959,206.3964,436.1988,196.5481,434.1131,201.8064,428.8548,199.7206,436.0959,206.3964" style="stroke:#383838;stroke-width:1.0;"/><text fill="#000000" font-family="monospace" font-size="13" font-weight="bold" lengthAdjust="spacing" textLength="16" x="430.8489" y="184.6792">ON</text><!--MD5=[f93beee92959f0017afd202ade278c45]
link RED to GREEN--><path d="M424.8369,233.7914 C364.6429,237.0394 213.6039,247.7174 171.8489,274.6094 C160.2299,282.0924 151.3449,294.4004 145.0119,305.9274 " fill="none" id="RED-to-GREEN" style="stroke:#383838;stroke-width:1.0;"/><polygon fill="#383838" points="142.6239,310.4634,150.3553,304.3621,144.9527,306.0388,143.276,300.6361,142.6239,310.4634" style="stroke:#383838;stroke-width:1.0;"/><text fill="#000000" font-family="monospace" font-size="13" font-weight="bold" lengthAdjust="spacing" textLength="16" x="172.8489" y="288.6792">GO</text><!--MD5=[94abb4295b53f522f70cdaa97cba5858]
link RED to RED--><path d="M475.0239,221.8974 C484.7579,221.4654 492.8489,224.7034 492.8489,231.6094 C492.8489,237.2204 487.5079,240.4104 480.2839,241.1774 " fill="none" id="RED-to-RED" style="stroke:#383838;stroke-width:1.0;"/><polygon fill="#383838" points="475.0239,241.3214,484.1302,245.073,480.022,241.1842,483.9108,237.076,475.0239,241.3214" style="stroke:#383838;stroke-width:1.0;"/><text fill="#000000" font-family="monospace" font-size="13" font-weight="bold" lengthAdjust="spacing" textLength="32" x="498.8489" y="236.6792">STOP</text><!--MD5=[83bb5d6e0a44a6b79608fbe7f8a726f4]
link RED to OFF--><path d="M449.6099,206.2564 C449.4669,191.7214 449.2849,173.1694 449.1349,157.8444 " fill="none" id="RED-to-OFF" style="stroke:#383838;stroke-width:1.0;"/><polygon fill="#383838" points="449.0859,152.7824,445.1761,161.8219,449.1359,157.7821,453.1757,161.7419,449.0859,152.7824" style="stroke:#383838;stroke-width:1.0;"/><text fill="#000000" font-family="monospace" font-size="13" font-weight="bold" lengthAdjust="spacing" textLength="24" x="450.8489" y="184.6792">OFF</text><!--MD5=[edbe2b918c721bc058748932d6b95a0d]
link RED to FLASHING_ON--><path d="M475.0339,245.1034 C488.5949,252.5524 505.1069,262.8414 517.8489,274.6094 C527.8179,283.8164 537.0149,295.5714 544.3939,306.2324 " fill="none" id="RED-to-FLASHING_ON" style="stroke:#383838;stroke-width:1.0;"/><polygon fill="#383838" points="547.2339,310.4114,545.483,300.7194,544.4233,306.2761,538.8666,305.2165,547.2339,310.4114" style="stroke:#383838;stroke-width:1.0;"/><text fill="#000000" font-family="monospace" font-size="13" font-weight="bold" lengthAdjust="spacing" textLength="40" x="534.8489" y="288.6792">FLASH</text><!--MD5=[15a05beae452f3a43ad42f789ef833a9]
link AMBER to RED--><path d="M155.9559,414.2428 C161.0199,408.5849 166.2409,402.493 170.8489,396.6094 C199.2749,360.3134 192.3819,338.8164 228.8489,310.6094 C287.2629,265.4254 373.9389,245.1034 419.4369,237.1024 " fill="none" id="AMBER-to-RED" style="stroke:#383838;stroke-width:1.0;"/><polygon fill="#383838" points="424.5099,236.2314,414.9623,233.8142,419.5822,237.0786,416.3179,241.6986,424.5099,236.2314" style="stroke:#383838;stroke-width:1.0;"/><text fill="#000000" font-family="monospace" font-size="13" font-weight="bold" lengthAdjust="spacing" textLength="208" x="229.8489" y="340.6792">«timeout = {amberTimeout}»</text><!--MD5=[a77ae1ae3527a193b953c7703557f870]
link AMBER to AMBER--><path d="M168.6019,429.9076 C178.6419,430.3325 186.3489,433.5664 186.3489,439.6094 C186.3489,444.5193 181.2609,447.5748 173.9679,448.7759 " fill="none" id="AMBER-to-AMBER" style="stroke:#383838;stroke-width:1.0;"/><polygon fill="#383838" points="168.6019,449.3112,177.955,452.3965,173.5772,448.814,177.1596,444.4361,168.6019,449.3112" style="stroke:#383838;stroke-width:1.0;"/><text fill="#000000" font-family="monospace" font-size="13" font-weight="bold" lengthAdjust="spacing" textLength="32" x="192.3489" y="444.6792">STOP</text><!--MD5=[0a186c4917f8cf122366db5dc94fe483]
link AMBER to OFF--><path d="M114.8675,414.389 C105.0754,399.6625 93.9427,380.0082 88.8485,360.6094 C83.2043,339.1164 80.3445,331.1404 88.8485,310.6094 C97.5077,289.7044 106.2295,287.4674 124.8485,274.6094 C223.6079,206.4074 359.3619,157.5524 418.8609,138.0234 " fill="none" id="AMBER-to-OFF" style="stroke:#383838;stroke-width:1.0;"/><polygon fill="#383838" points="423.6959,136.4454,413.8992,135.4329,418.9423,137.9956,416.3796,143.0387,423.6959,136.4454" style="stroke:#383838;stroke-width:1.0;"/><text fill="#000000" font-family="monospace" font-size="13" font-weight="bold" lengthAdjust="spacing" textLength="24" x="125.8485" y="288.6792">OFF</text><!--MD5=[3aa0a78b82c48e3b3a18aa5e1069c2ca]
link GREEN to AMBER--><path d="M132.8489,360.7824 C132.8489,375.2844 132.8489,393.8327 132.8489,409.1839 " fill="none" id="GREEN-to-AMBER" style="stroke:#383838;stroke-width:1.0;"/><polygon fill="#383838" points="132.8489,414.2569,136.8489,405.2569,132.8489,409.2569,128.8489,405.2569,132.8489,414.2569" style="stroke:#383838;stroke-width:1.0;"/><text fill="#000000" font-family="monospace" font-size="13" font-weight="bold" lengthAdjust="spacing" textLength="32" x="133.8489" y="392.6792">STOP</text><!--MD5=[17b035c3f61fc7f4dae3e6e9b3e2de23]
link GREEN to OFF--><path d="M98.2543,326.8894 C79.886,320.8414 58.8805,310.3654 47.8485,292.6094 C19.1721,246.4534 18,209.5984 55.8485,170.6094 C81.0362,144.6624 331.2179,132.9684 418.7769,129.6484 " fill="none" id="GREEN-to-OFF" style="stroke:#383838;stroke-width:1.0;"/><polygon fill="#383838" points="423.8129,129.4594,414.6695,125.7991,418.8164,129.6465,414.969,133.7935,423.8129,129.4594" style="stroke:#383838;stroke-width:1.0;"/><text fill="#000000" font-family="monospace" font-size="13" font-weight="bold" lengthAdjust="spacing" textLength="24" x="32.8486" y="236.6792">OFF</text><!--MD5=[2769fdd8dbd9ba2e744f00c761454a56]
link FLASHING_ON to FLASHING_OFF--><path d="M502.3229,358.9644 C484.8589,368.9907 473.0109,381.8878 483.8489,396.6094 C499.3329,417.6426 525.2679,428.4471 550.2909,433.8921 " fill="none" id="FLASHING_ON-to-FLASHING_OFF" style="stroke:#383838;stroke-width:1.0;"/><polygon fill="#383838" points="555.2809,434.9111,547.2644,429.1896,550.3822,433.9097,545.6622,437.0275,555.2809,434.9111" style="stroke:#383838;stroke-width:1.0;"/><text fill="#000000" font-family="monospace" font-size="13" font-weight="bold" lengthAdjust="spacing" textLength="248" x="484.8489" y="392.6792">«timeout = {flashingOnTimeout}»</text><!--MD5=[015db4bad349f79ee3c339f8561faae6]
link FLASHING_ON to OFF--><path d="M574.2329,310.2764 C576.5569,304.6164 578.6359,298.5154 579.8489,292.6094 C588.1129,252.3474 571.6479,238.6044 545.8489,206.6094 C526.7269,182.8954 499.2499,161.6454 478.4189,147.3374 " fill="none" id="FLASHING_ON-to-OFF" style="stroke:#383838;stroke-width:1.0;"/><polygon fill="#383838" points="474.0799,144.3914,479.2762,152.7579,478.2156,147.2014,483.7722,146.1408,474.0799,144.3914" style="stroke:#383838;stroke-width:1.0;"/><text fill="#000000" font-family="monospace" font-size="13" font-weight="bold" lengthAdjust="spacing" textLength="24" x="580.8489" y="236.6792">OFF</text><!--MD5=[9dc70e8236f5ed5052086958c743414a]
link FLASHING_ON to RED--><path d="M503.1259,310.4404 C494.6939,305.3584 486.6019,299.4284 479.8489,292.6094 C471.2499,283.9264 464.6599,272.2814 459.8759,261.5614 " fill="none" id="FLASHING_ON-to-RED" style="stroke:#383838;stroke-width:1.0;"/><polygon fill="#383838" points="457.8049,256.7144,457.6655,266.5622,459.7707,261.3117,465.0213,263.417,457.8049,256.7144" style="stroke:#383838;stroke-width:1.0;"/><text fill="#000000" font-family="monospace" font-size="13" font-weight="bold" lengthAdjust="spacing" textLength="32" x="480.8489" y="288.6792">STOP</text><!--MD5=[34d54328f18c181533b7c7acbbd3d4dd]
link FLASHING_OFF to FLASHING_ON--><path d="M682.6449,427.4979 C718.6269,418.352 752.9019,402.8746 733.8489,378.6094 C720.4869,361.5924 669.8069,350.5894 626.8939,344.1334 " fill="none" id="FLASHING_OFF-to-FLASHING_ON" style="stroke:#383838;stroke-width:1.0;"/><polygon fill="#383838" points="621.7019,343.3684,630.0214,348.6397,626.6483,344.0985,631.1895,340.7254,621.7019,343.3684" style="stroke:#383838;stroke-width:1.0;"/><text fill="#000000" font-family="monospace" font-size="13" font-weight="bold" lengthAdjust="spacing" textLength="256" x="740.8489" y="392.6792">«timeout = {flashingOffTimeout}»</text><!--MD5=[ad99e81b93cf563c1d9675ad96f3551f]
link FLASHING_OFF to OFF--><path d="M682.5009,439.4101 C800.2729,439.6038 1037.1549,433.3217 1001.8489,378.6094 C879.6299,189.2294 575.5199,141.7834 478.8519,131.3024 " fill="none" id="FLASHING_OFF-to-OFF" style="stroke:#383838;stroke-width:1.0;"/><polygon fill="#383838" points="473.8639,130.7744,482.3935,135.6984,478.8362,131.3,483.2346,127.7427,473.8639,130.7744" style="stroke:#383838;stroke-width:1.0;"/><text fill="#000000" font-family="monospace" font-size="13" font-weight="bold" lengthAdjust="spacing" textLength="24" x="924.8489" y="288.6792">OFF</text><!--MD5=[b64dbcd7e478346377e11a323b54bdfb]
link FLASHING_OFF to RED--><path d="M555.2759,431.6506 C528.2629,425.9343 497.9689,415.5319 475.8489,396.6094 C437.6399,363.9234 439.4269,299.6464 444.4469,261.9994 " fill="none" id="FLASHING_OFF-to-RED" style="stroke:#383838;stroke-width:1.0;"/><polygon fill="#383838" points="445.2059,256.6454,439.9804,264.9937,444.503,261.5957,447.901,266.1183,445.2059,256.6454" style="stroke:#383838;stroke-width:1.0;"/><text fill="#000000" font-family="monospace" font-size="13" font-weight="bold" lengthAdjust="spacing" textLength="32" x="451.8489" y="340.6792">STOP</text><!--MD5=[b2c671a2978f657a4a48fbdddea7ca4f]
@startuml
skinparam monochrome true
skinparam StateFontName Helvetica
skinparam defaultFontName Monospaced
skinparam defaultFontStyle Bold
skinparam state {
    FontStyle Bold
}
state TrafficLightFSM {
[*] - -> OFF
OFF - -> RED : ON
RED - -> GREEN : GO
RED - -> RED : STOP
RED - -> OFF : OFF
RED - -> FLASHING_ON : FLASH
AMBER - -> RED : <<timeout = {amberTimeout}>>
AMBER - -> AMBER : STOP
AMBER - -> OFF : OFF
GREEN - -> AMBER : STOP
GREEN - -> OFF : OFF
FLASHING_ON - -> FLASHING_OFF : <<timeout = {flashingOnTimeout}>>
FLASHING_ON - -> OFF : OFF
FLASHING_ON - -> RED : STOP
FLASHING_OFF - -> FLASHING_ON : <<timeout = {flashingOffTimeout}>>
FLASHING_OFF - -> OFF : OFF
FLASHING_OFF - -> RED : STOP
}
@enduml

PlantUML version 1.2021.7(Sun May 23 14:40:07 CAT 2021)
(GPL source distribution)
Java Runtime: OpenJDK Runtime Environment
JVM: OpenJDK 64-Bit Server VM
Default Encoding: Cp1252
Language: en
Country: ZA
--></g></svg>