<?xml version="1.0" encoding="UTF-8" standalone="no"?><svg xmlns="http://www.w3.org/2000/svg" xmlns:xlink="http://www.w3.org/1999/xlink" contentScriptType="application/ecmascript" contentStyleType="text/css" height="494px" preserveAspectRatio="none" style="width:391px;height:494px;background:#FFFFFF;" version="1.1" viewBox="0 0 391 494" width="391px" zoomAndPan="magnify"><defs><filter height="300%" id="f1tqwsxh1qq8zf" width="300%" x="-1" y="-1"><feGaussianBlur result="blurOut" stdDeviation="2.0"/><feColorMatrix in="blurOut" result="blurOut2" type="matrix" values="0 0 0 0 0 0 0 0 0 0 0 0 0 0 0 0 0 0 .4 0"/><feOffset dx="4.0" dy="4.0" in="blurOut2" result="blurOut3"/><feBlend in="SourceGraphic" in2="blurOut3" mode="normal"/></filter></defs><g><rect fill="#F8F8F8" filter="url(#f1tqwsxh1qq8zf)" height="475.6094" rx="12.5" ry="12.5" style="stroke:#383838;stroke-width:1.5;" width="372.9225" x="7" y="7"/><rect fill="#FFFFFF" height="442" rx="12.5" ry="12.5" style="stroke:#FFFFFF;stroke-width:1.0;" width="366.9225" x="10" y="37.6094"/><line style="stroke:#383838;stroke-width:1.5;" x1="7" x2="379.9225" y1="34.6094" y2="34.6094"/><text fill="#000000" font-family="Helvetica" font-size="14" font-weight="bold" lengthAdjust="spacing" textLength="110" x="138.4612" y="26.5332">TrafficLightFSM</text><ellipse cx="116.9223" cy="55.6094" fill="#000000" filter="url(#f1tqwsxh1qq8zf)" rx="10" ry="10" style="stroke:none;stroke-width:1.0;"/><g id="TrafficLightFSM.OFF"><rect fill="#F8F8F8" filter="url(#f1tqwsxh1qq8zf)" height="50" rx="12.5" ry="12.5" style="stroke:#383838;stroke-width:1.5;" width="50" x="91.9223" y="102.6094"/><line style="stroke:#383838;stroke-width:1.5;" x1="91.9223" x2="141.9223" y1="130.2188" y2="130.2188"/><text fill="#000000" font-family="Helvetica" font-size="14" font-weight="bold" lengthAdjust="spacing" textLength="29" x="102.4223" y="122.1426">OFF</text></g><g id="TrafficLightFSM.GREEN"><rect fill="#F8F8F8" filter="url(#f1tqwsxh1qq8zf)" height="50" rx="12.5" ry="12.5" style="stroke:#383838;stroke-width:1.5;" width="69" x="112.4223" y="206.6094"/><line style="stroke:#383838;stroke-width:1.5;" x1="112.4223" x2="181.4223" y1="234.2188" y2="234.2188"/><text fill="#000000" font-family="Helvetica" font-size="14" font-weight="bold" lengthAdjust="spacing" textLength="49" x="122.4223" y="226.1426">GREEN</text></g><g id="TrafficLightFSM.RED"><rect fill="#F8F8F8" filter="url(#f1tqwsxh1qq8zf)" height="50" rx="12.5" ry="12.5" style="stroke:#383838;stroke-width:1.5;" width="50" x="81.9223" y="414.6094"/><line style="stroke:#383838;stroke-width:1.5;" x1="81.9223" x2="131.9223" y1="442.2188" y2="442.2188"/><text fill="#000000" font-family="Helvetica" font-size="14" font-weight="bold" lengthAdjust="spacing" textLength="29" x="92.4223" y="434.1426">RED</text></g><g id="TrafficLightFSM.AMBER"><rect fill="#F8F8F8" filter="url(#f1tqwsxh1qq8zf)" height="50" rx="12.5" ry="12.5" style="stroke:#383838;stroke-width:1.5;" width="71" x="166.4225" y="310.6094"/><line style="stroke:#383838;stroke-width:1.5;" x1="166.4225" x2="237.4225" y1="338.2188" y2="338.2188"/><text fill="#000000" font-family="Helvetica" font-size="14" font-weight="bold" lengthAdjust="spacing" textLength="51" x="176.4225" y="330.1426">AMBER</text></g><!--MD5=[00724ca3c9432e62f7505b1f2eb4cf5b]
link *start*TrafficLightFSM to OFF--><path d="M116.9223,65.7604 C116.9223,73.7954 116.9223,85.9354 116.9223,97.2634 " fill="none" id="*start*TrafficLightFSM-to-OFF" style="stroke:#383838;stroke-width:1.0;"/><polygon fill="#383838" points="116.9223,102.3934,120.9223,93.3934,116.9223,97.3934,112.9223,93.3934,116.9223,102.3934" style="stroke:#383838;stroke-width:1.0;"/><!--MD5=[e27f70f9774c911d8da803e11ecaf87b]
link OFF to GREEN--><path d="M114.167,152.7814 C113.6884,163.9354 114.262,177.2014 117.9223,188.6094 C119.4249,193.2924 121.6389,197.9184 124.1854,202.2924 " fill="none" id="OFF-to-GREEN" style="stroke:#383838;stroke-width:1.0;"/><polygon fill="#383838" points="126.8285,206.5754,125.5038,196.816,124.2017,202.321,118.6968,201.0189,126.8285,206.5754" style="stroke:#383838;stroke-width:1.0;"/><text fill="#000000" font-family="monospace" font-size="13" font-weight="bold" lengthAdjust="spacing" textLength="16" x="118.9223" y="184.6792">GO</text><!--MD5=[4a4d81881a2961b63b71121a82b0b7cb]
link OFF to RED--><path d="M91.8728,147.2484 C84.0831,153.9604 75.9634,162.0144 69.9223,170.6094 C41.2565,211.3914 37.4302,225.6754 27.9223,274.6094 C18,325.6764 53.5009,378.8776 80.1127,410.3543 " fill="none" id="OFF-to-RED" style="stroke:#383838;stroke-width:1.0;"/><polygon fill="#383838" points="83.6385,414.4604,80.8101,405.0264,80.3812,410.6669,74.7406,410.238,83.6385,414.4604" style="stroke:#383838;stroke-width:1.0;"/><text fill="#000000" font-family="monospace" font-size="13" font-weight="bold" lengthAdjust="spacing" textLength="32" x="28.9224" y="288.6792">STOP</text><!--MD5=[f93beee92959f0017afd202ade278c45]
link RED to GREEN--><path d="M111.6212,414.4101 C118.998,376.4198 133.2725,302.9044 141.2245,261.9554 " fill="none" id="RED-to-GREEN" style="stroke:#383838;stroke-width:1.0;"/><polygon fill="#383838" points="142.2555,256.6434,136.6137,264.7162,141.3027,261.5517,144.4671,266.2407,142.2555,256.6434" style="stroke:#383838;stroke-width:1.0;"/><text fill="#000000" font-family="monospace" font-size="13" font-weight="bold" lengthAdjust="spacing" textLength="16" x="132.9225" y="340.6792">GO</text><!--MD5=[94abb4295b53f522f70cdaa97cba5858]
link RED to RED--><path d="M132.0975,429.8975 C141.8315,429.4658 149.9225,432.7031 149.9225,439.6094 C149.9225,445.2207 144.5815,448.41 137.3575,449.1772 " fill="none" id="RED-to-RED" style="stroke:#383838;stroke-width:1.0;"/><polygon fill="#383838" points="132.0975,449.3213,141.2038,453.0729,137.0956,449.1841,140.9844,445.0759,132.0975,449.3213" style="stroke:#383838;stroke-width:1.0;"/><text fill="#000000" font-family="monospace" font-size="13" font-weight="bold" lengthAdjust="spacing" textLength="32" x="155.9225" y="444.6792">STOP</text><!--MD5=[83bb5d6e0a44a6b79608fbe7f8a726f4]
link RED to OFF--><path d="M104.8302,414.5024 C101.5399,372.281 96.1883,282.2454 102.9223,206.6094 C104.3676,190.3764 107.4727,172.4664 110.3923,157.9064 " fill="none" id="RED-to-OFF" style="stroke:#383838;stroke-width:1.0;"/><polygon fill="#383838" points="111.4561,152.7024,105.7346,160.7189,110.4547,157.6011,113.5725,162.3212,111.4561,152.7024" style="stroke:#383838;stroke-width:1.0;"/><text fill="#000000" font-family="monospace" font-size="13" font-weight="bold" lengthAdjust="spacing" textLength="24" x="100.9223" y="288.6792">OFF</text><!--MD5=[15a05beae452f3a43ad42f789ef833a9]
link AMBER to RED--><path d="M179.4085,360.7824 C165.5495,375.6627 147.7225,394.8032 133.2155,410.3786 " fill="none" id="AMBER-to-RED" style="stroke:#383838;stroke-width:1.0;"/><polygon fill="#383838" points="129.6035,414.2569,138.664,410.3959,133.0107,410.5975,132.8091,404.9443,129.6035,414.2569" style="stroke:#383838;stroke-width:1.0;"/><text fill="#000000" font-family="monospace" font-size="13" font-weight="bold" lengthAdjust="spacing" textLength="208" x="161.9225" y="392.6792">«timeout = {amberTimeout}»</text><!--MD5=[a77ae1ae3527a193b953c7703557f870]
link AMBER to AMBER--><path d="M237.6755,325.9074 C247.7155,326.3324 255.4225,329.5664 255.4225,335.6094 C255.4225,340.5194 250.3345,343.5744 243.0415,344.7764 " fill="none" id="AMBER-to-AMBER" style="stroke:#383838;stroke-width:1.0;"/><polygon fill="#383838" points="237.6755,345.3114,247.0277,348.3994,242.6509,344.8157,246.2346,340.4389,237.6755,345.3114" style="stroke:#383838;stroke-width:1.0;"/><text fill="#000000" font-family="monospace" font-size="13" font-weight="bold" lengthAdjust="spacing" textLength="32" x="261.4225" y="340.6792">STOP</text><!--MD5=[0a186c4917f8cf122366db5dc94fe483]
link AMBER to OFF--><path d="M203.2825,310.1864 C203.5485,304.4244 203.7865,298.3014 203.9225,292.6094 C204.8435,253.8954 202.9945,243.0614 189.9225,206.6094 C183.8155,189.5794 182.5455,184.4734 170.9225,170.6094 C163.8405,162.1624 154.7955,154.3194 146.1425,147.7534 " fill="none" id="AMBER-to-OFF" style="stroke:#383838;stroke-width:1.0;"/><polygon fill="#383838" points="141.9365,144.6354,146.7836,153.2089,145.9529,147.6134,151.5484,146.7827,141.9365,144.6354" style="stroke:#383838;stroke-width:1.0;"/><text fill="#000000" font-family="monospace" font-size="13" font-weight="bold" lengthAdjust="spacing" textLength="24" x="204.9225" y="236.6792">OFF</text><!--MD5=[3aa0a78b82c48e3b3a18aa5e1069c2ca]
link GREEN to AMBER--><path d="M154.3815,256.6744 C158.3085,267.9274 163.6215,281.3064 169.9225,292.6094 C172.5195,297.2684 175.5895,301.9794 178.7825,306.4774 " fill="none" id="GREEN-to-AMBER" style="stroke:#383838;stroke-width:1.0;"/><polygon fill="#383838" points="181.7405,310.5414,179.6801,300.9105,178.7989,306.4983,173.2111,305.617,181.7405,310.5414" style="stroke:#383838;stroke-width:1.0;"/><text fill="#000000" font-family="monospace" font-size="13" font-weight="bold" lengthAdjust="spacing" textLength="32" x="170.9225" y="288.6792">STOP</text><!--MD5=[17b035c3f61fc7f4dae3e6e9b3e2de23]
link GREEN to OFF--><path d="M143.8495,206.3434 C142.1015,195.2904 139.5255,182.1324 135.9225,170.6094 C134.5545,166.2344 132.8465,161.7144 131.0215,157.3334 " fill="none" id="GREEN-to-OFF" style="stroke:#383838;stroke-width:1.0;"/><polygon fill="#383838" points="129.0035,152.6474,128.8881,162.4956,130.9805,157.2399,136.2361,159.3323,129.0035,152.6474" style="stroke:#383838;stroke-width:1.0;"/><text fill="#000000" font-family="monospace" font-size="13" font-weight="bold" lengthAdjust="spacing" textLength="24" x="141.9225" y="184.6792">OFF</text><!--MD5=[2833eccac42006f5150738fbe7eeed1e]
@startuml
skinparam monochrome true
skinparam StateFontName Helvetica
skinparam defaultFontName Monospaced
skinparam defaultFontStyle Bold
skinparam state {
    FontStyle Bold
}
state TrafficLightFSM {
[*] - -> OFF
OFF - -> GREEN : GO
OFF - -> RED : STOP
RED - -> GREEN : GO
RED - -> RED : STOP
RED - -> OFF : OFF
AMBER - -> RED : <<timeout = {amberTimeout}>>
AMBER - -> AMBER : STOP
AMBER - -> OFF : OFF
GREEN - -> AMBER : STOP
GREEN - -> OFF : OFF
}
@enduml

PlantUML version 1.2021.7(Sun May 23 14:40:07 CAT 2021)
(GPL source distribution)
Java Runtime: OpenJDK Runtime Environment
JVM: OpenJDK 64-Bit Server VM
Default Encoding: Cp1252
Language: en
Country: ZA
--></g></svg>