<?xml version="1.0" encoding="UTF-8" standalone="no"?><svg xmlns="http://www.w3.org/2000/svg" xmlns:xlink="http://www.w3.org/1999/xlink" contentScriptType="application/ecmascript" contentStyleType="text/css" height="494px" preserveAspectRatio="none" style="width:878px;height:494px;background:#FFFFFF;" version="1.1" viewBox="0 0 878 494" width="878px" zoomAndPan="magnify"><defs><filter height="300%" id="fnch89w8eju2q" width="300%" x="-1" y="-1"><feGaussianBlur result="blurOut" stdDeviation="2.0"/><feColorMatrix in="blurOut" result="blurOut2" type="matrix" values="0 0 0 0 0 0 0 0 0 0 0 0 0 0 0 0 0 0 .4 0"/><feOffset dx="4.0" dy="4.0" in="blurOut2" result="blurOut3"/><feBlend in="SourceGraphic" in2="blurOut3" mode="normal"/></filter></defs><g><rect fill="#F8F8F8" filter="url(#fnch89w8eju2q)" height="475.6094" rx="12.5" ry="12.5" style="stroke:#383838;stroke-width:1.5;" width="859.4819" x="7" y="7"/><rect fill="#FFFFFF" height="442" rx="12.5" ry="12.5" style="stroke:#FFFFFF;stroke-width:1.0;" width="853.4819" x="10" y="37.6094"/><line style="stroke:#383838;stroke-width:1.5;" x1="7" x2="866.4819" y1="34.6094" y2="34.6094"/><text fill="#000000" font-family="Helvetica" font-size="14" font-weight="bold" lengthAdjust="spacing" textLength="160" x="356.7409" y="26.5332">TrafficIntersectionFSM</text><ellipse cx="483.4819" cy="55.6094" fill="#000000" filter="url(#fnch89w8eju2q)" rx="10" ry="10" style="stroke:none;stroke-width:1.0;"/><g id="TrafficIntersectionFSM.STOPPED"><rect fill="#F8F8F8" filter="url(#fnch89w8eju2q)" height="50" rx="12.5" ry="12.5" style="stroke:#383838;stroke-width:1.5;" width="85" x="440.9819" y="102.6094"/><line style="stroke:#383838;stroke-width:1.5;" x1="440.9819" x2="525.9819" y1="130.2188" y2="130.2188"/><text fill="#000000" font-family="Helvetica" font-size="14" font-weight="bold" lengthAdjust="spacing" textLength="65" x="450.9819" y="122.1426">STOPPED</text></g><g id="TrafficIntersectionFSM.GOING"><rect fill="#F8F8F8" filter="url(#fnch89w8eju2q)" height="50" rx="12.5" ry="12.5" style="stroke:#383838;stroke-width:1.5;" width="67" x="266.9819" y="206.6094"/><line style="stroke:#383838;stroke-width:1.5;" x1="266.9819" x2="333.9819" y1="234.2188" y2="234.2188"/><text fill="#000000" font-family="Helvetica" font-size="14" font-weight="bold" lengthAdjust="spacing" textLength="47" x="276.9819" y="226.1426">GOING</text></g><g id="TrafficIntersectionFSM.STOPPING"><rect fill="#F8F8F8" filter="url(#fnch89w8eju2q)" height="50" rx="12.5" ry="12.5" style="stroke:#383838;stroke-width:1.5;" width="91" x="295.9819" y="310.6094"/><line style="stroke:#383838;stroke-width:1.5;" x1="295.9819" x2="386.9819" y1="338.2188" y2="338.2188"/><text fill="#000000" font-family="Helvetica" font-size="14" font-weight="bold" lengthAdjust="spacing" textLength="71" x="305.9819" y="330.1426">STOPPING</text></g><g id="TrafficIntersectionFSM.WAITING_STOPPED"><rect fill="#F8F8F8" filter="url(#fnch89w8eju2q)" height="50" rx="12.5" ry="12.5" style="stroke:#383838;stroke-width:1.5;" width="152" x="456.4819" y="414.6094"/><line style="stroke:#383838;stroke-width:1.5;" x1="456.4819" x2="608.4819" y1="442.2188" y2="442.2188"/><text fill="#000000" font-family="Helvetica" font-size="14" font-weight="bold" lengthAdjust="spacing" textLength="132" x="466.4819" y="434.1426">WAITING_STOPPED</text></g><g id="TrafficIntersectionFSM.WAITING"><rect fill="#F8F8F8" filter="url(#fnch89w8eju2q)" height="50" rx="12.5" ry="12.5" style="stroke:#383838;stroke-width:1.5;" width="79" x="19.9819" y="414.6094"/><line style="stroke:#383838;stroke-width:1.5;" x1="19.9819" x2="98.9819" y1="442.2188" y2="442.2188"/><text fill="#000000" font-family="Helvetica" font-size="14" font-weight="bold" lengthAdjust="spacing" textLength="59" x="29.9819" y="434.1426">WAITING</text></g><!--MD5=[0e09728cc457ebac24fb4af4d2c6ece9]
link *start*TrafficIntersectionFSM to STOPPED--><path d="M483.4819,65.7604 C483.4819,73.7954 483.4819,85.9354 483.4819,97.2634 " fill="none" id="*start*TrafficIntersectionFSM-to-STOPPED" style="stroke:#383838;stroke-width:1.0;"/><polygon fill="#383838" points="483.4819,102.3934,487.4819,93.3934,483.4819,97.3934,479.4819,93.3934,483.4819,102.3934" style="stroke:#383838;stroke-width:1.0;"/><!--MD5=[077e120bfbc30b5bd4099620b18cdaed]
link STOPPED to GOING--><path d="M440.5769,152.5234 C409.6909,169.7384 368.3989,192.7544 338.6549,209.3324 " fill="none" id="STOPPED-to-GOING" style="stroke:#383838;stroke-width:1.0;"/><polygon fill="#383838" points="333.9839,211.9364,343.7926,211.0483,338.3512,209.502,339.8976,204.0606,333.9839,211.9364" style="stroke:#383838;stroke-width:1.0;"/><text fill="#000000" font-family="monospace" font-size="13" font-weight="bold" lengthAdjust="spacing" textLength="40" x="404.4819" y="184.6792">START</text><!--MD5=[75a204fa9372a53b122c3788c8835dae]
link STOPPED to STOPPED--><path d="M526.1649,119.8734 C536.3989,120.4784 543.9819,123.0564 543.9819,127.6094 C543.9819,131.3794 538.7819,133.7964 531.1818,134.8584 " fill="none" id="STOPPED-to-STOPPED" style="stroke:#383838;stroke-width:1.0;"/><polygon fill="#383838" points="526.1649,135.3454,535.509,138.4576,531.1415,134.8626,534.7365,130.495,526.1649,135.3454" style="stroke:#383838;stroke-width:1.0;"/><text fill="#000000" font-family="monospace" font-size="13" font-weight="bold" lengthAdjust="spacing" textLength="56" x="549.9819" y="132.6792">STOPPED</text><!--MD5=[2e57a40ebf806e158066d44368eeb506]
link GOING to STOPPING--><path d="M296.9409,256.7824 C296.2659,268.0584 296.8999,281.4264 301.4819,292.6094 C303.4289,297.3614 306.1879,301.8874 309.3569,306.0874 " fill="none" id="GOING-to-STOPPING" style="stroke:#383838;stroke-width:1.0;"/><polygon fill="#383838" points="312.6489,310.1764,310.1199,300.6577,309.513,306.2819,303.8888,305.6751,312.6489,310.1764" style="stroke:#383838;stroke-width:1.0;"/><text fill="#000000" font-family="monospace" font-size="13" font-weight="bold" lengthAdjust="spacing" textLength="184" x="302.4819" y="288.6792">«timeout = {cycleTime}»</text><!--MD5=[2e57a40ebf806e158066d44368eeb506]
link GOING to STOPPING--><path d="M266.7629,249.5504 C248.9979,260.8504 232.8829,276.5364 243.4819,292.6094 C245.0579,294.9994 268.0109,304.8934 291.3039,314.4774 " fill="none" id="GOING-to-STOPPING-1" style="stroke:#383838;stroke-width:1.0;"/><polygon fill="#383838" points="295.9619,316.3884,289.1547,309.2706,291.3363,314.4899,286.1171,316.6715,295.9619,316.3884" style="stroke:#383838;stroke-width:1.0;"/><text fill="#000000" font-family="monospace" font-size="13" font-weight="bold" lengthAdjust="spacing" textLength="48" x="244.4819" y="288.6792">SWITCH</text><!--MD5=[98250bfde97d800a7ce46aa557768b1d]
link GOING to WAITING_STOPPED--><path d="M334.0139,236.0044 C381.7029,241.5014 465.7559,253.8784 487.4819,274.6094 C497.3289,284.0054 516.3369,364.9511 526.2009,409.4992 " fill="none" id="GOING-to-WAITING_STOPPED" style="stroke:#383838;stroke-width:1.0;"/><polygon fill="#383838" points="527.2989,414.4814,529.267,404.8312,526.2222,409.5987,521.4547,406.5539,527.2989,414.4814" style="stroke:#383838;stroke-width:1.0;"/><text fill="#000000" font-family="monospace" font-size="13" font-weight="bold" lengthAdjust="spacing" textLength="32" x="515.4819" y="340.6792">STOP</text><!--MD5=[efa6eca18e90a7ace7d508dcd6aec675]
link STOPPING to WAITING--><path d="M295.6979,355.1564 C290.9089,357.0264 286.1029,358.8744 281.4819,360.6094 C220.4129,383.5397 149.1539,408.2118 104.1779,423.5312 " fill="none" id="STOPPING-to-WAITING" style="stroke:#383838;stroke-width:1.0;"/><polygon fill="#383838" points="99.3679,425.168,109.1767,426.0552,104.1013,423.5571,106.5993,418.4817,99.3679,425.168" style="stroke:#383838;stroke-width:1.0;"/><text fill="#000000" font-family="monospace" font-size="13" font-weight="bold" lengthAdjust="spacing" textLength="56" x="228.4819" y="392.6792">STOPPED</text><!--MD5=[fe08ae31c024323f5aea0bb0522b7d22]
link STOPPING to STOPPING--><path d="M387.1469,326.0974 C397.4479,326.9544 404.9819,330.1254 404.9819,335.6094 C404.9819,340.1514 399.8149,343.1064 392.1889,344.4744 " fill="none" id="STOPPING-to-STOPPING" style="stroke:#383838;stroke-width:1.0;"/><polygon fill="#383838" points="387.1469,345.1214,396.5832,347.9417,392.1061,344.4841,395.5637,340.007,387.1469,345.1214" style="stroke:#383838;stroke-width:1.0;"/><text fill="#000000" font-family="monospace" font-size="13" font-weight="bold" lengthAdjust="spacing" textLength="48" x="410.9819" y="340.6792">SWITCH</text><!--MD5=[e60b05149855d5aa632bd54b0b540644]
link STOPPING to WAITING_STOPPED--><path d="M386.4249,360.7274 C406.8759,371.692 431.3939,384.8214 453.4819,396.6094 C462.7859,401.5745 472.7109,406.86 482.2729,411.9467 " fill="none" id="STOPPING-to-WAITING_STOPPED" style="stroke:#383838;stroke-width:1.0;"/><polygon fill="#383838" points="486.9339,414.4256,480.8651,406.6686,482.5191,412.0783,477.1094,413.7322,486.9339,414.4256" style="stroke:#383838;stroke-width:1.0;"/><text fill="#000000" font-family="monospace" font-size="13" font-weight="bold" lengthAdjust="spacing" textLength="32" x="454.4819" y="392.6792">STOP</text><!--MD5=[15d90bb837becb4119098d374e4b4cc7]
link WAITING to GOING--><path d="M53.8245,414.1273 C48.8644,386.0873 45.5851,340.2134 68.4819,310.6094 C114.696,250.8574 208.5959,236.4784 261.6719,233.2694 " fill="none" id="WAITING-to-GOING" style="stroke:#383838;stroke-width:1.0;"/><polygon fill="#383838" points="266.6779,232.9934,257.471,229.4957,261.6855,233.2691,257.9121,237.4835,266.6779,232.9934" style="stroke:#383838;stroke-width:1.0;"/><text fill="#000000" font-family="monospace" font-size="13" font-weight="bold" lengthAdjust="spacing" textLength="216" x="69.4819" y="340.6792">«timeout = {cycleWaitTime}»</text><!--MD5=[74587d36db9700cd1fbb3ca4f89842b2]
link WAITING to WAITING--><path d="M98.9876,429.96 C109.2463,430.5531 116.9819,433.7696 116.9819,439.6094 C116.9819,444.4455 111.6769,447.4826 104.0272,448.7205 " fill="none" id="WAITING-to-WAITING" style="stroke:#383838;stroke-width:1.0;"/><polygon fill="#383838" points="98.9876,449.2588,108.3616,452.2798,103.9592,448.7275,107.5116,444.3251,98.9876,449.2588" style="stroke:#383838;stroke-width:1.0;"/><text fill="#000000" font-family="monospace" font-size="13" font-weight="bold" lengthAdjust="spacing" textLength="48" x="122.9819" y="444.6792">SWITCH</text><!--MD5=[d29183765590280e2d67df14938ed998]
link WAITING to STOPPED--><path d="M48.9562,414.4553 C35.6723,379.8415 18,315.7754 48.4819,274.6094 C140.4869,150.3584 343.0079,130.5884 435.5949,128.2944 " fill="none" id="WAITING-to-STOPPED" style="stroke:#383838;stroke-width:1.0;"/><polygon fill="#383838" points="440.7269,128.1824,431.6421,124.3788,435.728,128.291,431.8158,132.3769,440.7269,128.1824" style="stroke:#383838;stroke-width:1.0;"/><text fill="#000000" font-family="monospace" font-size="13" font-weight="bold" lengthAdjust="spacing" textLength="32" x="49.4819" y="288.6792">STOP</text><!--MD5=[6a3673ff49521e1ff5d6d247a82b4be7]
link WAITING_STOPPED to STOPPED--><path d="M561.9339,414.4533 C567.5489,408.9713 573.0479,402.8979 577.4819,396.6094 C580.2099,392.7401 632.9509,325.1654 622.4819,274.6094 C612.2699,225.2924 612.8829,206.4314 577.4819,170.6094 C564.8429,157.8204 547.6229,148.5974 531.3729,142.1114 " fill="none" id="WAITING_STOPPED-to-STOPPED" style="stroke:#383838;stroke-width:1.0;"/><polygon fill="#383838" points="526.3679,140.1864,533.3305,147.1521,531.0342,141.9823,536.204,139.686,526.3679,140.1864" style="stroke:#383838;stroke-width:1.0;"/><text fill="#000000" font-family="monospace" font-size="13" font-weight="bold" lengthAdjust="spacing" textLength="232" x="624.4819" y="288.6792">«timeout = {cycleWaitTime/2}»</text><!--MD5=[6a3673ff49521e1ff5d6d247a82b4be7]
link WAITING_STOPPED to STOPPED--><path d="M539.1169,414.5859 C542.9969,399.2739 547.5079,378.9366 549.4819,360.6094 C551.8619,338.5154 553.3279,332.4964 549.4819,310.6094 C539.6009,254.3754 513.7719,192.6334 497.5109,157.4534 " fill="none" id="WAITING_STOPPED-to-STOPPED-1" style="stroke:#383838;stroke-width:1.0;"/><polygon fill="#383838" points="495.3809,152.8784,495.5551,162.7257,497.4921,157.4108,502.807,159.3477,495.3809,152.8784" style="stroke:#383838;stroke-width:1.0;"/><text fill="#000000" font-family="monospace" font-size="13" font-weight="bold" lengthAdjust="spacing" textLength="56" x="546.4819" y="288.6792">STOPPED</text><!--MD5=[c277207906ec6137e47da088ccf1fde1]
@startuml
skinparam monochrome true
skinparam StateFontName Helvetica
skinparam defaultFontName Monospaced
skinparam defaultFontStyle Bold
skinparam state {
    FontStyle Bold
}
state TrafficIntersectionFSM {
[*] - -> STOPPED
STOPPED - -> GOING : START
STOPPED - -> STOPPED : STOPPED
GOING - -> STOPPING : <<timeout = {cycleTime}>>
GOING - -> STOPPING : SWITCH
GOING - -> WAITING_STOPPED : STOP
STOPPING - -> WAITING : STOPPED
STOPPING - -> STOPPING : SWITCH
STOPPING - -> WAITING_STOPPED : STOP
WAITING - -> GOING : <<timeout = {cycleWaitTime}>>
WAITING - -> WAITING : SWITCH
WAITING - -> STOPPED : STOP
WAITING_STOPPED - -> STOPPED : <<timeout = {cycleWaitTime/2}>>
WAITING_STOPPED - -> STOPPED : STOPPED
}
@enduml

PlantUML version 1.2021.7(Sun May 23 14:40:07 CAT 2021)
(GPL source distribution)
Java Runtime: OpenJDK Runtime Environment
JVM: OpenJDK 64-Bit Server VM
Default Encoding: Cp1252
Language: en
Country: ZA
--></g></svg>