<?xml version="1.0" encoding="UTF-8" standalone="no"?><svg xmlns="http://www.w3.org/2000/svg" xmlns:xlink="http://www.w3.org/1999/xlink" contentScriptType="application/ecmascript" contentStyleType="text/css" height="854px" preserveAspectRatio="none" style="width:1820px;height:854px;background:#FFFFFF;" version="1.1" viewBox="0 0 1820 854" width="1820px" zoomAndPan="magnify"><defs><filter height="300%" id="fbu70crb3mxvc" width="300%" x="-1" y="-1"><feGaussianBlur result="blurOut" stdDeviation="2.0"/><feColorMatrix in="blurOut" result="blurOut2" type="matrix" values="0 0 0 0 0 0 0 0 0 0 0 0 0 0 0 0 0 0 .4 0"/><feOffset dx="4.0" dy="4.0" in="blurOut2" result="blurOut3"/><feBlend in="SourceGraphic" in2="blurOut3" mode="normal"/></filter></defs><g><rect fill="#F8F8F8" filter="url(#fbu70crb3mxvc)" height="835.6094" rx="12.5" ry="12.5" style="stroke:#383838;stroke-width:1.5;" width="1801.7913" x="7" y="7"/><rect fill="#FFFFFF" height="802" rx="12.5" ry="12.5" style="stroke:#FFFFFF;stroke-width:1.0;" width="1795.7913" x="10" y="37.6094"/><line style="stroke:#383838;stroke-width:1.5;" x1="7" x2="1808.7913" y1="34.6094" y2="34.6094"/><text fill="#000000" font-family="Helvetica" font-size="14" font-weight="bold" lengthAdjust="spacing" textLength="110" x="852.8956" y="26.5332">TrafficLightFSM</text><ellipse cx="641.7903" cy="55.6094" fill="#000000" filter="url(#fbu70crb3mxvc)" rx="10" ry="10" style="stroke:none;stroke-width:1.0;"/><g id="TrafficLightFSM.OFF"><rect fill="#F8F8F8" filter="url(#fbu70crb3mxvc)" height="50" rx="12.5" ry="12.5" style="stroke:#383838;stroke-width:1.5;" width="50" x="616.7903" y="102.6094"/><line style="stroke:#383838;stroke-width:1.5;" x1="616.7903" x2="666.7903" y1="130.2188" y2="130.2188"/><text fill="#000000" font-family="Helvetica" font-size="14" font-weight="bold" lengthAdjust="spacing" textLength="29" x="627.2903" y="122.1426">OFF</text></g><g id="TrafficLightFSM.RED"><rect fill="#F8F8F8" filter="url(#fbu70crb3mxvc)" height="50" rx="12.5" ry="12.5" style="stroke:#383838;stroke-width:1.5;" width="50" x="700.7903" y="323.1094"/><line style="stroke:#383838;stroke-width:1.5;" x1="700.7903" x2="750.7903" y1="350.7188" y2="350.7188"/><text fill="#000000" font-family="Helvetica" font-size="14" font-weight="bold" lengthAdjust="spacing" textLength="29" x="711.2903" y="342.6426">RED</text></g><g id="TrafficLightFSM.GREEN"><rect fill="#F8F8F8" filter="url(#fbu70crb3mxvc)" height="50" rx="12.5" ry="12.5" style="stroke:#383838;stroke-width:1.5;" width="69" x="169.2903" y="570.1094"/><line style="stroke:#383838;stroke-width:1.5;" x1="169.2903" x2="238.2903" y1="597.7188" y2="597.7188"/><text fill="#000000" font-family="Helvetica" font-size="14" font-weight="bold" lengthAdjust="spacing" textLength="49" x="179.2903" y="589.6426">GREEN</text></g><g id="TrafficLightFSM.FLASHING_ON"><rect fill="#F8F8F8" filter="url(#fbu70crb3mxvc)" height="50" rx="12.5" ry="12.5" style="stroke:#383838;stroke-width:1.5;" width="119" x="943.2903" y="570.1094"/><line style="stroke:#383838;stroke-width:1.5;" x1="943.2903" x2="1062.2903" y1="597.7188" y2="597.7188"/><text fill="#000000" font-family="Helvetica" font-size="14" font-weight="bold" lengthAdjust="spacing" textLength="99" x="953.2903" y="589.6426">FLASHING_ON</text></g><g id="TrafficLightFSM.AMBER"><rect fill="#F8F8F8" filter="url(#fbu70crb3mxvc)" height="50" rx="12.5" ry="12.5" style="stroke:#383838;stroke-width:1.5;" width="71" x="144.2903" y="774.6094"/><line style="stroke:#383838;stroke-width:1.5;" x1="144.2903" x2="215.2903" y1="802.2188" y2="802.2188"/><text fill="#000000" font-family="Helvetica" font-size="14" font-weight="bold" lengthAdjust="spacing" textLength="51" x="154.2903" y="794.1426">AMBER</text></g><g id="TrafficLightFSM.FLASHING_OFF"><rect fill="#F8F8F8" filter="url(#fbu70crb3mxvc)" height="50" rx="12.5" ry="12.5" style="stroke:#383838;stroke-width:1.5;" width="127" x="923.2903" y="774.6094"/><line style="stroke:#383838;stroke-width:1.5;" x1="923.2903" x2="1050.2903" y1="802.2188" y2="802.2188"/><text fill="#000000" font-family="Helvetica" font-size="14" font-weight="bold" lengthAdjust="spacing" textLength="107" x="933.2903" y="794.1426">FLASHING_OFF</text></g><!--MD5=[00724ca3c9432e62f7505b1f2eb4cf5b]
link *start*TrafficLightFSM to OFF--><path d="M641.7903,65.7604 C641.7903,73.7954 641.7903,85.9354 641.7903,97.2634 " fill="none" id="*start*TrafficLightFSM-to-OFF" style="stroke:#383838;stroke-width:1.0;"/><polygon fill="#383838" points="641.7903,102.3934,645.7903,93.3934,641.7903,97.3934,637.7903,93.3934,641.7903,102.3934" style="stroke:#383838;stroke-width:1.0;"/><!--MD5=[4a4d81881a2961b63b71121a82b0b7cb]
link OFF to RED--><path d="M616.6193,127.6694 C583.4363,127.9714 526.0803,134.1514 498.7903,170.6094 C471.3583,207.2574 471.8643,236.5884 498.7903,273.6094 C544.4903,336.4424 645.0743,346.6594 695.5903,347.6314 " fill="none" id="OFF-to-RED" style="stroke:#383838;stroke-width:1.0;"/><polygon fill="#383838" points="700.6133,347.7004,691.6702,343.5748,695.6138,347.6304,691.5582,351.574,700.6133,347.7004" style="stroke:#383838;stroke-width:1.0;"/><text fill="#000000" font-family="monospace" font-size="13" font-weight="bold" lengthAdjust="spacing" textLength="56" x="499.7903" y="201.6792">ON -&gt; {</text><text fill="#000000" font-family="monospace" font-size="13" font-weight="bold" lengthAdjust="spacing" textLength="248" x="515.7903" y="218.6528">logger.info{"OFF:ON_OFF:$name"}</text><text fill="#000000" font-family="monospace" font-size="13" font-weight="bold" lengthAdjust="spacing" textLength="120" x="515.7903" y="235.6265">switchRed(true)</text><text fill="#000000" font-family="monospace" font-size="13" font-weight="bold" lengthAdjust="spacing" textLength="8" x="499.7903" y="252.6001">}</text><!--MD5=[f93beee92959f0017afd202ade278c45]
link RED to GREEN--><path d="M700.7723,352.3564 C639.1203,360.8624 482.3133,385.7134 446.7903,422.6094 C414.2573,456.3984 455.5673,491.1084 423.7903,525.6094 C376.9853,576.4274 293.2033,589.8544 243.6393,593.2124 " fill="none" id="RED-to-GREEN" style="stroke:#383838;stroke-width:1.0;"/><polygon fill="#383838" points="238.3613,593.5404,247.5929,596.9722,243.3516,593.229,247.0947,588.9877,238.3613,593.5404" style="stroke:#383838;stroke-width:1.0;"/><text fill="#000000" font-family="monospace" font-size="13" font-weight="bold" lengthAdjust="spacing" textLength="56" x="447.7903" y="445.1792">GO -&gt; {</text><text fill="#000000" font-family="monospace" font-size="13" font-weight="bold" lengthAdjust="spacing" textLength="216" x="463.7903" y="462.1528">logger.info{"RED:GO:$name"}</text><text fill="#000000" font-family="monospace" font-size="13" font-weight="bold" lengthAdjust="spacing" textLength="128" x="463.7903" y="479.1265">switchRed(false)</text><text fill="#000000" font-family="monospace" font-size="13" font-weight="bold" lengthAdjust="spacing" textLength="136" x="463.7903" y="496.1001">switchGreen(true)</text><text fill="#000000" font-family="monospace" font-size="13" font-weight="bold" lengthAdjust="spacing" textLength="8" x="447.7903" y="513.0737">}</text><!--MD5=[94abb4295b53f522f70cdaa97cba5858]
link RED to RED--><path d="M750.9663,324.5764 C760.7003,323.5304 768.7903,331.3754 768.7903,348.1094 C768.7903,361.7064 763.4493,369.4334 756.2253,371.2924 " fill="none" id="RED-to-RED" style="stroke:#383838;stroke-width:1.0;"/><polygon fill="#383838" points="750.9663,371.6424,760.2117,375.037,755.9553,371.3109,759.6813,367.0546,750.9663,371.6424" style="stroke:#383838;stroke-width:1.0;"/><text fill="#000000" font-family="monospace" font-size="13" font-weight="bold" lengthAdjust="spacing" textLength="72" x="774.7903" y="310.6792">STOP -&gt; {</text><text fill="#000000" font-family="monospace" font-size="13" font-weight="bold" lengthAdjust="spacing" textLength="232" x="790.7903" y="327.6528">logger.info{"RED:STOP:$name"}</text><text fill="#000000" font-family="monospace" font-size="13" font-weight="bold" lengthAdjust="spacing" textLength="144" x="790.7903" y="344.6265">switchGreen(false)</text><text fill="#000000" font-family="monospace" font-size="13" font-weight="bold" lengthAdjust="spacing" textLength="144" x="790.7903" y="361.6001">switchAmber(false)</text><text fill="#000000" font-family="monospace" font-size="13" font-weight="bold" lengthAdjust="spacing" textLength="120" x="790.7903" y="378.5737">switchRed(true)</text><text fill="#000000" font-family="monospace" font-size="13" font-weight="bold" lengthAdjust="spacing" textLength="8" x="774.7903" y="395.5474">}</text><!--MD5=[83bb5d6e0a44a6b79608fbe7f8a726f4]
link RED to OFF--><path d="M742.0113,323.0374 C764.2873,286.6754 798.0163,217.0644 764.7903,170.6094 C743.8443,141.3234 701.2223,132.2284 672.0833,129.5314 " fill="none" id="RED-to-OFF" style="stroke:#383838;stroke-width:1.0;"/><polygon fill="#383838" points="666.8083,129.0994,675.4513,133.8215,671.7916,129.508,676.1051,125.8482,666.8083,129.0994" style="stroke:#383838;stroke-width:1.0;"/><text fill="#000000" font-family="monospace" font-size="13" font-weight="bold" lengthAdjust="spacing" textLength="64" x="779.7903" y="184.6792">OFF -&gt; {</text><text fill="#000000" font-family="monospace" font-size="13" font-weight="bold" lengthAdjust="spacing" textLength="248" x="795.7903" y="201.6528">logger.info{"RED:ON_OFF:$name"}</text><text fill="#000000" font-family="monospace" font-size="13" font-weight="bold" lengthAdjust="spacing" textLength="144" x="795.7903" y="218.6265">switchGreen(false)</text><text fill="#000000" font-family="monospace" font-size="13" font-weight="bold" lengthAdjust="spacing" textLength="144" x="795.7903" y="235.6001">switchAmber(false)</text><text fill="#000000" font-family="monospace" font-size="13" font-weight="bold" lengthAdjust="spacing" textLength="128" x="795.7903" y="252.5737">switchRed(false)</text><text fill="#000000" font-family="monospace" font-size="13" font-weight="bold" lengthAdjust="spacing" textLength="8" x="779.7903" y="269.5474">}</text><!--MD5=[edbe2b918c721bc058748932d6b95a0d]
link RED to FLASHING_ON--><path d="M750.8963,359.4814 C775.8503,371.1174 813.2793,392.3994 833.7903,422.6094 C860.1383,461.4154 824.0453,492.0254 856.7903,525.6094 C879.8173,549.2264 898.6983,530.1024 928.7903,543.6094 C942.4393,549.7354 956.2783,558.3874 968.2383,566.8024 " fill="none" id="RED-to-FLASHING_ON" style="stroke:#383838;stroke-width:1.0;"/><polygon fill="#383838" points="972.5553,569.8864,967.5581,561.3995,968.4871,566.9795,962.9071,567.9086,972.5553,569.8864" style="stroke:#383838;stroke-width:1.0;"/><text fill="#000000" font-family="monospace" font-size="13" font-weight="bold" lengthAdjust="spacing" textLength="80" x="857.7903" y="462.1792">FLASH -&gt; {</text><text fill="#000000" font-family="monospace" font-size="13" font-weight="bold" lengthAdjust="spacing" textLength="240" x="873.7903" y="479.1528">logger.info{"RED:FLASH:$name"}</text><text fill="#000000" font-family="monospace" font-size="13" font-weight="bold" lengthAdjust="spacing" textLength="8" x="857.7903" y="496.1265">}</text><!--MD5=[15a05beae452f3a43ad42f789ef833a9]
link AMBER to RED--><path d="M215.3423,797.4484 C280.8193,794.5047 416.5523,784.3822 446.7903,750.6094 C508.2983,681.9104 396.0493,609.2704 460.7903,543.6094 C495.2303,508.6804 643.3173,557.2624 680.7903,525.6094 C703.0633,506.7964 716.5973,423.5144 722.4253,378.3964 " fill="none" id="AMBER-to-RED" style="stroke:#383838;stroke-width:1.0;"/><polygon fill="#383838" points="723.0653,373.3554,717.9631,381.7796,722.4353,378.3155,725.8994,382.7877,723.0653,373.3554" style="stroke:#383838;stroke-width:1.0;"/><text fill="#000000" font-family="monospace" font-size="13" font-weight="bold" lengthAdjust="spacing" textLength="248" x="461.7903" y="557.6792">«timeout = {amberTimeout}» -&gt; {</text><text fill="#000000" font-family="monospace" font-size="13" font-weight="bold" lengthAdjust="spacing" textLength="272" x="477.7903" y="574.6528">logger.info{"AMBER:timeout:$name"}</text><text fill="#000000" font-family="monospace" font-size="13" font-weight="bold" lengthAdjust="spacing" textLength="120" x="477.7903" y="591.6265">switchRed(true)</text><text fill="#000000" font-family="monospace" font-size="13" font-weight="bold" lengthAdjust="spacing" textLength="144" x="477.7903" y="608.6001">switchAmber(false)</text><text fill="#000000" font-family="monospace" font-size="13" font-weight="bold" lengthAdjust="spacing" textLength="96" x="477.7903" y="625.5737">setStopped()</text><text fill="#000000" font-family="monospace" font-size="13" font-weight="bold" lengthAdjust="spacing" textLength="8" x="461.7903" y="642.5474">}</text><!--MD5=[a77ae1ae3527a193b953c7703557f870]
link AMBER to AMBER--><path d="M215.5433,782.4447 C225.5833,783.1964 233.2903,788.918 233.2903,799.6094 C233.2903,808.4632 228.0053,813.9088 220.4863,815.9461 " fill="none" id="AMBER-to-AMBER" style="stroke:#383838;stroke-width:1.0;"/><polygon fill="#383838" points="215.5433,816.7741,225.081,819.2302,220.4744,815.947,223.7576,811.3404,215.5433,816.7741" style="stroke:#383838;stroke-width:1.0;"/><text fill="#000000" font-family="monospace" font-size="13" font-weight="bold" lengthAdjust="spacing" textLength="72" x="239.2903" y="787.6792">STOP -&gt; {</text><text fill="#000000" font-family="monospace" font-size="13" font-weight="bold" lengthAdjust="spacing" textLength="248" x="255.2903" y="804.6528">logger.info{"AMBER:STOP:$name"}</text><text fill="#000000" font-family="monospace" font-size="13" font-weight="bold" lengthAdjust="spacing" textLength="8" x="239.2903" y="821.6265">}</text><!--MD5=[0a186c4917f8cf122366db5dc94fe483]
link AMBER to OFF--><path d="M168.4753,774.5764 C141.0046,712.5124 77.3393,543.2964 137.7903,422.6094 C221.5483,255.3914 305.9203,250.9844 474.7903,170.6094 C519.7593,149.2054 576.9193,137.8734 611.3623,132.5684 " fill="none" id="AMBER-to-OFF" style="stroke:#383838;stroke-width:1.0;"/><polygon fill="#383838" points="616.6893,131.7674,607.1949,129.149,611.7448,132.5103,608.3835,137.0602,616.6893,131.7674" style="stroke:#383838;stroke-width:1.0;"/><text fill="#000000" font-family="monospace" font-size="13" font-weight="bold" lengthAdjust="spacing" textLength="64" x="138.7903" y="436.6792">OFF -&gt; {</text><text fill="#000000" font-family="monospace" font-size="13" font-weight="bold" lengthAdjust="spacing" textLength="264" x="154.7903" y="453.6528">logger.info{"AMBER:ON_OFF:$name"}</text><text fill="#000000" font-family="monospace" font-size="13" font-weight="bold" lengthAdjust="spacing" textLength="144" x="154.7903" y="470.6265">switchGreen(false)</text><text fill="#000000" font-family="monospace" font-size="13" font-weight="bold" lengthAdjust="spacing" textLength="144" x="154.7903" y="487.6001">switchAmber(false)</text><text fill="#000000" font-family="monospace" font-size="13" font-weight="bold" lengthAdjust="spacing" textLength="128" x="154.7903" y="504.5737">switchRed(false)</text><text fill="#000000" font-family="monospace" font-size="13" font-weight="bold" lengthAdjust="spacing" textLength="8" x="138.7903" y="521.5474">}</text><!--MD5=[3aa0a78b82c48e3b3a18aa5e1069c2ca]
link GREEN to AMBER--><path d="M193.5573,620.3584 C188.6563,633.2494 183.3143,649.5144 180.7903,664.6094 C174.8543,700.1034 175.7273,741.6289 177.3473,768.937 " fill="none" id="GREEN-to-AMBER" style="stroke:#383838;stroke-width:1.0;"/><polygon fill="#383838" points="177.6793,774.2031,181.1046,764.969,177.3644,769.213,173.1205,765.4728,177.6793,774.2031" style="stroke:#383838;stroke-width:1.0;"/><text fill="#000000" font-family="monospace" font-size="13" font-weight="bold" lengthAdjust="spacing" textLength="72" x="181.7903" y="678.6792">STOP -&gt; {</text><text fill="#000000" font-family="monospace" font-size="13" font-weight="bold" lengthAdjust="spacing" textLength="248" x="197.7903" y="695.6528">logger.info{"GREEN:STOP:$name"}</text><text fill="#000000" font-family="monospace" font-size="13" font-weight="bold" lengthAdjust="spacing" textLength="144" x="197.7903" y="712.6265">switchGreen(false)</text><text fill="#000000" font-family="monospace" font-size="13" font-weight="bold" lengthAdjust="spacing" textLength="136" x="197.7903" y="729.6001">switchAmber(true)</text><text fill="#000000" font-family="monospace" font-size="13" font-weight="bold" lengthAdjust="spacing" textLength="8" x="181.7903" y="746.5737">}</text><!--MD5=[17b035c3f61fc7f4dae3e6e9b3e2de23]
link GREEN to OFF--><path d="M169.1423,576.2724 C150.51,564.6184 129.26,547.4934 118.7903,525.6094 C50.6799,383.2454 18,284.9384 126.7903,170.6094 C160.2753,135.4204 505.7523,129.7114 611.3183,128.7874 " fill="none" id="GREEN-to-OFF" style="stroke:#383838;stroke-width:1.0;"/><polygon fill="#383838" points="616.4573,128.7444,607.4245,124.8191,611.4575,128.7858,607.4908,132.8188,616.4573,128.7444" style="stroke:#383838;stroke-width:1.0;"/><text fill="#000000" font-family="monospace" font-size="13" font-weight="bold" lengthAdjust="spacing" textLength="64" x="69.7903" y="310.6792">OFF -&gt; {</text><text fill="#000000" font-family="monospace" font-size="13" font-weight="bold" lengthAdjust="spacing" textLength="240" x="85.7903" y="327.6528">logger.info{"GREEN:OFF:$name"}</text><text fill="#000000" font-family="monospace" font-size="13" font-weight="bold" lengthAdjust="spacing" textLength="144" x="85.7903" y="344.6265">switchGreen(false)</text><text fill="#000000" font-family="monospace" font-size="13" font-weight="bold" lengthAdjust="spacing" textLength="144" x="85.7903" y="361.6001">switchAmber(false)</text><text fill="#000000" font-family="monospace" font-size="13" font-weight="bold" lengthAdjust="spacing" textLength="128" x="85.7903" y="378.5737">switchRed(false)</text><text fill="#000000" font-family="monospace" font-size="13" font-weight="bold" lengthAdjust="spacing" textLength="8" x="69.7903" y="395.5474">}</text><!--MD5=[2769fdd8dbd9ba2e744f00c761454a56]
link FLASHING_ON to FLASHING_OFF--><path d="M973.4703,620.2854 C960.4943,629.8454 944.6073,640.0864 928.7903,646.6094 C888.2553,663.3264 859.8243,630.8944 831.7903,664.6094 C807.3523,693.9994 809.1103,719.8434 831.7903,750.6094 C851.6233,777.5141 886.3693,789.7902 917.9433,795.2184 " fill="none" id="FLASHING_ON-to-FLASHING_OFF" style="stroke:#383838;stroke-width:1.0;"/><polygon fill="#383838" points="922.9803,796.032,914.7331,790.6483,918.0443,795.2348,913.4577,798.5459,922.9803,796.032" style="stroke:#383838;stroke-width:1.0;"/><text fill="#000000" font-family="monospace" font-size="13" font-weight="bold" lengthAdjust="spacing" textLength="288" x="832.7903" y="695.6792">«timeout = {flashingOnTimeout}» -&gt; {</text><text fill="#000000" font-family="monospace" font-size="13" font-weight="bold" lengthAdjust="spacing" textLength="128" x="848.7903" y="712.6528">switchRed(false)</text><text fill="#000000" font-family="monospace" font-size="13" font-weight="bold" lengthAdjust="spacing" textLength="8" x="832.7903" y="729.6265">}</text><!--MD5=[015db4bad349f79ee3c339f8561faae6]
link FLASHING_ON to OFF--><path d="M1062.3913,572.0524 C1082.7413,561.3224 1103.2513,546.1874 1114.7913,525.6094 C1154.0313,455.6164 1109.7113,222.8364 1048.7903,170.6094 C1020.3033,146.1864 761.5873,133.4684 672.0893,129.7704 " fill="none" id="FLASHING_ON-to-OFF" style="stroke:#383838;stroke-width:1.0;"/><polygon fill="#383838" points="666.9453,129.5604,675.7744,133.9247,671.9411,129.7646,676.1012,125.9313,666.9453,129.5604" style="stroke:#383838;stroke-width:1.0;"/><text fill="#000000" font-family="monospace" font-size="13" font-weight="bold" lengthAdjust="spacing" textLength="64" x="1128.7913" y="310.6792">OFF -&gt; {</text><text fill="#000000" font-family="monospace" font-size="13" font-weight="bold" lengthAdjust="spacing" textLength="288" x="1144.7913" y="327.6528">logger.info{"FLASHING_ON:OFF:$name"}</text><text fill="#000000" font-family="monospace" font-size="13" font-weight="bold" lengthAdjust="spacing" textLength="144" x="1144.7913" y="344.6265">switchGreen(false)</text><text fill="#000000" font-family="monospace" font-size="13" font-weight="bold" lengthAdjust="spacing" textLength="144" x="1144.7913" y="361.6001">switchAmber(false)</text><text fill="#000000" font-family="monospace" font-size="13" font-weight="bold" lengthAdjust="spacing" textLength="128" x="1144.7913" y="378.5737">switchRed(false)</text><text fill="#000000" font-family="monospace" font-size="13" font-weight="bold" lengthAdjust="spacing" textLength="8" x="1128.7913" y="395.5474">}</text><!--MD5=[9dc70e8236f5ed5052086958c743414a]
link FLASHING_ON to RED--><path d="M974.7643,570.1024 C961.6453,560.2044 945.2933,549.6564 928.7903,543.6094 C892.4983,530.3104 783.9913,552.0424 755.7903,525.6094 C753.1103,523.0974 738.0193,427.9824 730.3153,378.4484 " fill="none" id="FLASHING_ON-to-RED" style="stroke:#383838;stroke-width:1.0;"/><polygon fill="#383838" points="729.5043,373.2214,726.9328,382.7286,730.2716,378.1622,734.838,381.501,729.5043,373.2214" style="stroke:#383838;stroke-width:1.0;"/><text fill="#000000" font-family="monospace" font-size="13" font-weight="bold" lengthAdjust="spacing" textLength="72" x="756.7903" y="470.6792">STOP -&gt; {</text><text fill="#000000" font-family="monospace" font-size="13" font-weight="bold" lengthAdjust="spacing" textLength="8" x="756.7903" y="487.6528">}</text><!--MD5=[34d54328f18c181533b7c7acbbd3d4dd]
link FLASHING_OFF to FLASHING_ON--><path d="M1050.5783,791.9902 C1077.1313,785.7243 1105.5113,773.676 1121.7913,750.6094 C1143.8313,719.3814 1140.9213,697.6984 1121.7913,664.6094 C1109.6513,643.6094 1088.3513,628.4804 1067.1013,617.8744 " fill="none" id="FLASHING_OFF-to-FLASHING_ON" style="stroke:#383838;stroke-width:1.0;"/><polygon fill="#383838" points="1062.5713,615.6784,1068.9193,623.2085,1067.0688,617.8629,1072.4145,616.0125,1062.5713,615.6784" style="stroke:#383838;stroke-width:1.0;"/><text fill="#000000" font-family="monospace" font-size="13" font-weight="bold" lengthAdjust="spacing" textLength="296" x="1138.7913" y="695.6792">«timeout = {flashingOffTimeout}» -&gt; {</text><text fill="#000000" font-family="monospace" font-size="13" font-weight="bold" lengthAdjust="spacing" textLength="120" x="1154.7913" y="712.6528">switchRed(true)</text><text fill="#000000" font-family="monospace" font-size="13" font-weight="bold" lengthAdjust="spacing" textLength="8" x="1138.7913" y="729.6265">}</text><!--MD5=[ad99e81b93cf563c1d9675ad96f3551f]
link FLASHING_OFF to OFF--><path d="M1050.4933,796.4913 C1169.1213,791.8873 1414.2313,779.0146 1439.7913,750.6094 C1508.0113,674.7794 1497.1213,374.5804 1437.7913,291.6094 C1346.0413,163.2964 807.0673,134.7734 672.3153,129.6134 " fill="none" id="FLASHING_OFF-to-OFF" style="stroke:#383838;stroke-width:1.0;"/><polygon fill="#383838" points="666.9473,129.4124,675.7913,133.7464,671.9438,129.5995,676.0907,125.752,666.9473,129.4124" style="stroke:#383838;stroke-width:1.0;"/><text fill="#000000" font-family="monospace" font-size="13" font-weight="bold" lengthAdjust="spacing" textLength="64" x="1486.7913" y="462.1792">OFF -&gt; {</text><text fill="#000000" font-family="monospace" font-size="13" font-weight="bold" lengthAdjust="spacing" textLength="296" x="1502.7913" y="479.1528">logger.info{"FLASHING_OFF:OFF:$name"}</text><text fill="#000000" font-family="monospace" font-size="13" font-weight="bold" lengthAdjust="spacing" textLength="8" x="1486.7913" y="496.1265">}</text><!--MD5=[b64dbcd7e478346377e11a323b54bdfb]
link FLASHING_OFF to RED--><path d="M923.2733,796.5107 C885.8443,791.9483 840.2103,780.0891 810.7903,750.6094 C743.4673,683.1484 798.7563,628.1694 754.7903,543.6094 C749.9863,534.3704 743.7203,535.2534 739.7903,525.6094 C719.9453,476.9084 720.3723,414.4714 722.8393,378.4094 " fill="none" id="FLASHING_OFF-to-RED" style="stroke:#383838;stroke-width:1.0;"/><polygon fill="#383838" points="723.2153,373.2844,718.5651,381.9663,722.8481,378.2709,726.5435,382.5538,723.2153,373.2844" style="stroke:#383838;stroke-width:1.0;"/><text fill="#000000" font-family="monospace" font-size="13" font-weight="bold" lengthAdjust="spacing" textLength="72" x="775.7903" y="583.1792">STOP -&gt; {</text><text fill="#000000" font-family="monospace" font-size="13" font-weight="bold" lengthAdjust="spacing" textLength="120" x="791.7903" y="600.1528">switchRed(true)</text><text fill="#000000" font-family="monospace" font-size="13" font-weight="bold" lengthAdjust="spacing" textLength="8" x="775.7903" y="617.1265">}</text><!--MD5=[5788a832e9b4aba22e1035a98058465e]
@startuml
skinparam monochrome true
skinparam StateFontName Helvetica
skinparam defaultFontName Monospaced
skinparam defaultFontStyle Bold
skinparam state {
    FontStyle Bold
}
state TrafficLightFSM {
[*] - -> OFF
OFF - -> RED : ON -> {\l  logger.info{"OFF:ON_OFF:$name"}\l  switchRed(true)\l}
RED - -> GREEN : GO -> {\l  logger.info{"RED:GO:$name"}\l  switchRed(false)\l  switchGreen(true)\l}
RED - -> RED : STOP -> {\l  logger.info{"RED:STOP:$name"}\l  switchGreen(false)\l  switchAmber(false)\l  switchRed(true)\l}
RED - -> OFF : OFF -> {\l  logger.info{"RED:ON_OFF:$name"}\l  switchGreen(false)\l  switchAmber(false)\l  switchRed(false)\l}
RED - -> FLASHING_ON : FLASH -> {\l  logger.info{"RED:FLASH:$name"}\l}
AMBER - -> RED : <<timeout = {amberTimeout}>> -> {\l  logger.info{"AMBER:timeout:$name"}\l  switchRed(true)\l  switchAmber(false)\l  setStopped()\l}
AMBER - -> AMBER : STOP -> {\l  logger.info{"AMBER:STOP:$name"}\l}
AMBER - -> OFF : OFF -> {\l  logger.info{"AMBER:ON_OFF:$name"}\l  switchGreen(false)\l  switchAmber(false)\l  switchRed(false)\l}
GREEN - -> AMBER : STOP -> {\l  logger.info{"GREEN:STOP:$name"}\l  switchGreen(false)\l  switchAmber(true)\l}
GREEN - -> OFF : OFF -> {\l  logger.info{"GREEN:OFF:$name"}\l  switchGreen(false)\l  switchAmber(false)\l  switchRed(false)\l}
FLASHING_ON - -> FLASHING_OFF : <<timeout = {flashingOnTimeout}>> -> {\l  switchRed(false)\l}
FLASHING_ON - -> OFF : OFF -> {\l  logger.info{"FLASHING_ON:OFF:$name"}\l  switchGreen(false)\l  switchAmber(false)\l  switchRed(false)\l}
FLASHING_ON - -> RED : STOP -> {\l}
FLASHING_OFF - -> FLASHING_ON : <<timeout = {flashingOffTimeout}>> -> {\l  switchRed(true)\l}
FLASHING_OFF - -> OFF : OFF -> {\l  logger.info{"FLASHING_OFF:OFF:$name"}\l}
FLASHING_OFF - -> RED : STOP -> {\l  switchRed(true)\l}
}
@enduml

PlantUML version 1.2021.7(Sun May 23 14:40:07 CAT 2021)
(GPL source distribution)
Java Runtime: OpenJDK Runtime Environment
JVM: OpenJDK 64-Bit Server VM
Default Encoding: Cp1252
Language: en
Country: ZA
--></g></svg>