<?xml version="1.0" encoding="UTF-8" standalone="no"?><svg xmlns="http://www.w3.org/2000/svg" xmlns:xlink="http://www.w3.org/1999/xlink" contentScriptType="application/ecmascript" contentStyleType="text/css" height="598px" preserveAspectRatio="none" style="width:879px;height:598px;background:#FFFFFF;" version="1.1" viewBox="0 0 879 598" width="879px" zoomAndPan="magnify"><defs><filter height="300%" id="f1lwglwhucll8e" width="300%" x="-1" y="-1"><feGaussianBlur result="blurOut" stdDeviation="2.0"/><feColorMatrix in="blurOut" result="blurOut2" type="matrix" values="0 0 0 0 0 0 0 0 0 0 0 0 0 0 0 0 0 0 .4 0"/><feOffset dx="4.0" dy="4.0" in="blurOut2" result="blurOut3"/><feBlend in="SourceGraphic" in2="blurOut3" mode="normal"/></filter></defs><g><rect fill="#F8F8F8" filter="url(#f1lwglwhucll8e)" height="579.6094" rx="12.5" ry="12.5" style="stroke:#383838;stroke-width:1.5;" width="860.5" x="7" y="7"/><rect fill="#FFFFFF" height="546" rx="12.5" ry="12.5" style="stroke:#FFFFFF;stroke-width:1.0;" width="854.5" x="10" y="37.6094"/><line style="stroke:#383838;stroke-width:1.5;" x1="7" x2="867.5" y1="34.6094" y2="34.6094"/><text fill="#000000" font-family="Helvetica" font-size="14" font-weight="bold" lengthAdjust="spacing" textLength="160" x="357.25" y="26.5332">TrafficIntersectionFSM</text><ellipse cx="278.5" cy="55.6094" fill="#000000" filter="url(#f1lwglwhucll8e)" rx="10" ry="10" style="stroke:none;stroke-width:1.0;"/><g id="TrafficIntersectionFSM.OFF"><rect fill="#F8F8F8" filter="url(#f1lwglwhucll8e)" height="50" rx="12.5" ry="12.5" style="stroke:#383838;stroke-width:1.5;" width="50" x="253.5" y="102.6094"/><line style="stroke:#383838;stroke-width:1.5;" x1="253.5" x2="303.5" y1="130.2188" y2="130.2188"/><text fill="#000000" font-family="Helvetica" font-size="14" font-weight="bold" lengthAdjust="spacing" textLength="29" x="264" y="122.1426">OFF</text></g><g id="TrafficIntersectionFSM.STOPPED"><rect fill="#F8F8F8" filter="url(#f1lwglwhucll8e)" height="50" rx="12.5" ry="12.5" style="stroke:#383838;stroke-width:1.5;" width="85" x="236" y="206.6094"/><line style="stroke:#383838;stroke-width:1.5;" x1="236" x2="321" y1="234.2188" y2="234.2188"/><text fill="#000000" font-family="Helvetica" font-size="14" font-weight="bold" lengthAdjust="spacing" textLength="65" x="246" y="226.1426">STOPPED</text></g><g id="TrafficIntersectionFSM.GOING"><rect fill="#F8F8F8" filter="url(#f1lwglwhucll8e)" height="50" rx="12.5" ry="12.5" style="stroke:#383838;stroke-width:1.5;" width="67" x="266" y="310.6094"/><line style="stroke:#383838;stroke-width:1.5;" x1="266" x2="333" y1="338.2188" y2="338.2188"/><text fill="#000000" font-family="Helvetica" font-size="14" font-weight="bold" lengthAdjust="spacing" textLength="47" x="276" y="330.1426">GOING</text></g><g id="TrafficIntersectionFSM.FLASHING"><rect fill="#F8F8F8" filter="url(#f1lwglwhucll8e)" height="50" rx="12.5" ry="12.5" style="stroke:#383838;stroke-width:1.5;" width="90" x="151.5" y="310.6094"/><line style="stroke:#383838;stroke-width:1.5;" x1="151.5" x2="241.5" y1="338.2188" y2="338.2188"/><text fill="#000000" font-family="Helvetica" font-size="14" font-weight="bold" lengthAdjust="spacing" textLength="70" x="161.5" y="330.1426">FLASHING</text></g><g id="TrafficIntersectionFSM.STOPPING"><rect fill="#F8F8F8" filter="url(#f1lwglwhucll8e)" height="50" rx="12.5" ry="12.5" style="stroke:#383838;stroke-width:1.5;" width="91" x="295" y="414.6094"/><line style="stroke:#383838;stroke-width:1.5;" x1="295" x2="386" y1="442.2188" y2="442.2188"/><text fill="#000000" font-family="Helvetica" font-size="14" font-weight="bold" lengthAdjust="spacing" textLength="71" x="305" y="434.1426">STOPPING</text></g><g id="TrafficIntersectionFSM.WAITING_STOPPED"><rect fill="#F8F8F8" filter="url(#f1lwglwhucll8e)" height="50" rx="12.5" ry="12.5" style="stroke:#383838;stroke-width:1.5;" width="152" x="455.5" y="518.6094"/><line style="stroke:#383838;stroke-width:1.5;" x1="455.5" x2="607.5" y1="546.2188" y2="546.2188"/><text fill="#000000" font-family="Helvetica" font-size="14" font-weight="bold" lengthAdjust="spacing" textLength="132" x="465.5" y="538.1426">WAITING_STOPPED</text></g><g id="TrafficIntersectionFSM.WAITING"><rect fill="#F8F8F8" filter="url(#f1lwglwhucll8e)" height="50" rx="12.5" ry="12.5" style="stroke:#383838;stroke-width:1.5;" width="79" x="19" y="518.6094"/><line style="stroke:#383838;stroke-width:1.5;" x1="19" x2="98" y1="546.2188" y2="546.2188"/><text fill="#000000" font-family="Helvetica" font-size="14" font-weight="bold" lengthAdjust="spacing" textLength="59" x="29" y="538.1426">WAITING</text></g><!--MD5=[d34473b27c0a481ca90902cd3a172298]
link *start*TrafficIntersectionFSM to OFF--><path d="M278.5,65.7604 C278.5,73.7954 278.5,85.9354 278.5,97.2634 " fill="none" id="*start*TrafficIntersectionFSM-to-OFF" style="stroke:#383838;stroke-width:1.0;"/><polygon fill="#383838" points="278.5,102.3934,282.5,93.3934,278.5,97.3934,274.5,93.3934,278.5,102.3934" style="stroke:#383838;stroke-width:1.0;"/><!--MD5=[20b2e042d83c526baf1aa034c3e862e3]
link OFF to STOPPED--><path d="M253.371,152.1504 C245.027,162.8374 238.902,175.9094 243.5,188.6094 C245.196,193.2944 247.669,197.8254 250.528,202.0664 " fill="none" id="OFF-to-STOPPED" style="stroke:#383838;stroke-width:1.0;"/><polygon fill="#383838" points="253.502,206.2064,251.5005,196.563,250.5851,202.1453,245.0028,201.23,253.502,206.2064" style="stroke:#383838;stroke-width:1.0;"/><text fill="#000000" font-family="monospace" font-size="13" font-weight="bold" lengthAdjust="spacing" textLength="48" x="244.5" y="184.6792">ON_OFF</text><!--MD5=[2e78ee781b77322ec8f9f432366697d3]
link STOPPED to OFF--><path d="M289.251,206.5514 C292.891,195.6554 295.571,182.5644 293.5,170.6094 C292.759,166.3324 291.623,161.9144 290.301,157.6224 " fill="none" id="STOPPED-to-OFF" style="stroke:#383838;stroke-width:1.0;"/><polygon fill="#383838" points="288.676,152.6574,287.6742,162.4551,290.2314,157.4093,295.2773,159.9665,288.676,152.6574" style="stroke:#383838;stroke-width:1.0;"/><text fill="#000000" font-family="monospace" font-size="13" font-weight="bold" lengthAdjust="spacing" textLength="48" x="295.5" y="184.6792">ON_OFF</text><!--MD5=[077e120bfbc30b5bd4099620b18cdaed]
link STOPPED to GOING--><path d="M285.276,256.9494 C286.769,262.7154 288.271,268.8604 289.5,274.6094 C291.644,284.6344 293.599,295.6844 295.202,305.5404 " fill="none" id="STOPPED-to-GOING" style="stroke:#383838;stroke-width:1.0;"/><polygon fill="#383838" points="296.006,310.5734,298.5364,301.0551,295.2174,305.636,290.6366,302.3169,296.006,310.5734" style="stroke:#383838;stroke-width:1.0;"/><text fill="#000000" font-family="monospace" font-size="13" font-weight="bold" lengthAdjust="spacing" textLength="40" x="294.5" y="288.6792">START</text><!--MD5=[75a204fa9372a53b122c3788c8835dae]
link STOPPED to STOPPED--><path d="M321.183,222.0314 C331.417,222.7804 339,225.9724 339,231.6094 C339,236.2774 333.8,239.2694 326.2,240.5844 " fill="none" id="STOPPED-to-STOPPED" style="stroke:#383838;stroke-width:1.0;"/><polygon fill="#383838" points="321.183,241.1874,330.5955,244.0866,326.1474,240.5916,329.6423,236.1436,321.183,241.1874" style="stroke:#383838;stroke-width:1.0;"/><text fill="#000000" font-family="monospace" font-size="13" font-weight="bold" lengthAdjust="spacing" textLength="56" x="345" y="236.6792">STOPPED</text><!--MD5=[4ef4896ee14a4ba650e5e0ea7c8b8a2f]
link STOPPED to FLASHING--><path d="M258.016,256.9364 C253.22,262.7024 248.153,268.8504 243.5,274.6094 C235.13,284.9674 226.078,296.4544 218.172,306.5814 " fill="none" id="STOPPED-to-FLASHING" style="stroke:#383838;stroke-width:1.0;"/><polygon fill="#383838" points="215.089,310.5374,223.7775,305.8994,218.1634,306.5943,217.4686,300.9803,215.089,310.5374" style="stroke:#383838;stroke-width:1.0;"/><text fill="#000000" font-family="monospace" font-size="13" font-weight="bold" lengthAdjust="spacing" textLength="40" x="244.5" y="288.6792">FLASH</text><!--MD5=[2e57a40ebf806e158066d44368eeb506]
link GOING to STOPPING--><path d="M295.959,360.7824 C295.284,372.0584 295.918,385.4264 300.5,396.6094 C302.447,401.3614 305.206,405.8874 308.375,410.0874 " fill="none" id="GOING-to-STOPPING" style="stroke:#383838;stroke-width:1.0;"/><polygon fill="#383838" points="311.667,414.1764,309.1381,404.6577,308.5312,410.2819,302.907,409.6751,311.667,414.1764" style="stroke:#383838;stroke-width:1.0;"/><text fill="#000000" font-family="monospace" font-size="13" font-weight="bold" lengthAdjust="spacing" textLength="184" x="301.5" y="392.6792">«timeout = {cycleTime}»</text><!--MD5=[2e57a40ebf806e158066d44368eeb506]
link GOING to STOPPING--><path d="M265.781,353.5504 C248.016,364.8504 231.901,380.5364 242.5,396.6094 C244.076,398.9994 267.029,408.8934 290.322,418.4774 " fill="none" id="GOING-to-STOPPING-1" style="stroke:#383838;stroke-width:1.0;"/><polygon fill="#383838" points="294.98,420.3884,288.1728,413.2706,290.3545,418.4899,285.1352,420.6715,294.98,420.3884" style="stroke:#383838;stroke-width:1.0;"/><text fill="#000000" font-family="monospace" font-size="13" font-weight="bold" lengthAdjust="spacing" textLength="48" x="243.5" y="392.6792">SWITCH</text><!--MD5=[98250bfde97d800a7ce46aa557768b1d]
link GOING to WAITING_STOPPED--><path d="M333.032,340.0044 C380.721,345.5014 464.774,357.8784 486.5,378.6094 C496.347,388.0054 515.355,468.9511 525.219,513.4992 " fill="none" id="GOING-to-WAITING_STOPPED" style="stroke:#383838;stroke-width:1.0;"/><polygon fill="#383838" points="526.317,518.4814,528.2851,508.8312,525.2403,513.5987,520.4728,510.5539,526.317,518.4814" style="stroke:#383838;stroke-width:1.0;"/><text fill="#000000" font-family="monospace" font-size="13" font-weight="bold" lengthAdjust="spacing" textLength="32" x="514.5" y="444.6792">STOP</text><!--MD5=[efa6eca18e90a7ace7d508dcd6aec675]
link STOPPING to WAITING--><path d="M294.716,459.1564 C289.927,461.0264 285.121,462.8744 280.5,464.6094 C219.431,487.5397 148.172,512.2118 103.196,527.5312 " fill="none" id="STOPPING-to-WAITING" style="stroke:#383838;stroke-width:1.0;"/><polygon fill="#383838" points="98.386,529.168,108.1948,530.0552,103.1194,527.5571,105.6175,522.4817,98.386,529.168" style="stroke:#383838;stroke-width:1.0;"/><text fill="#000000" font-family="monospace" font-size="13" font-weight="bold" lengthAdjust="spacing" textLength="56" x="227.5" y="496.6792">STOPPED</text><!--MD5=[fe08ae31c024323f5aea0bb0522b7d22]
link STOPPING to STOPPING--><path d="M386.165,430.0974 C396.466,430.9544 404,434.1254 404,439.6094 C404,444.1514 398.833,447.1064 391.207,448.4744 " fill="none" id="STOPPING-to-STOPPING" style="stroke:#383838;stroke-width:1.0;"/><polygon fill="#383838" points="386.165,449.1214,395.6014,451.9417,391.1242,448.4841,394.5818,444.007,386.165,449.1214" style="stroke:#383838;stroke-width:1.0;"/><text fill="#000000" font-family="monospace" font-size="13" font-weight="bold" lengthAdjust="spacing" textLength="48" x="410" y="444.6792">SWITCH</text><!--MD5=[e60b05149855d5aa632bd54b0b540644]
link STOPPING to WAITING_STOPPED--><path d="M385.443,464.7274 C405.894,475.692 430.412,488.8214 452.5,500.6094 C461.804,505.5745 471.729,510.86 481.291,515.9467 " fill="none" id="STOPPING-to-WAITING_STOPPED" style="stroke:#383838;stroke-width:1.0;"/><polygon fill="#383838" points="485.952,518.4256,479.8833,510.6686,481.5372,516.0783,476.1276,517.7322,485.952,518.4256" style="stroke:#383838;stroke-width:1.0;"/><text fill="#000000" font-family="monospace" font-size="13" font-weight="bold" lengthAdjust="spacing" textLength="32" x="453.5" y="496.6792">STOP</text><!--MD5=[15d90bb837becb4119098d374e4b4cc7]
link WAITING to GOING--><path d="M52.7398,518.4751 C47.5467,490.3377 43.9142,443.9544 67.5,414.6094 C120.626,348.5124 171.475,391.3694 250.5,360.6094 C253.959,359.2634 257.508,357.7664 261.037,356.1974 " fill="none" id="WAITING-to-GOING" style="stroke:#383838;stroke-width:1.0;"/><polygon fill="#383838" points="265.827,354.0194,255.9785,354.1042,261.2756,356.0894,259.2905,361.3865,265.827,354.0194" style="stroke:#383838;stroke-width:1.0;"/><text fill="#000000" font-family="monospace" font-size="13" font-weight="bold" lengthAdjust="spacing" textLength="216" x="68.5" y="444.6792">«timeout = {cycleWaitTime}»</text><!--MD5=[74587d36db9700cd1fbb3ca4f89842b2]
link WAITING to WAITING--><path d="M98.0057,533.96 C108.2644,534.5531 116,537.7696 116,543.6094 C116,548.4455 110.695,551.4826 103.0453,552.7205 " fill="none" id="WAITING-to-WAITING" style="stroke:#383838;stroke-width:1.0;"/><polygon fill="#383838" points="98.0057,553.2588,107.3798,556.2798,102.9774,552.7275,106.5297,548.3251,98.0057,553.2588" style="stroke:#383838;stroke-width:1.0;"/><text fill="#000000" font-family="monospace" font-size="13" font-weight="bold" lengthAdjust="spacing" textLength="48" x="122" y="548.6792">SWITCH</text><!--MD5=[d29183765590280e2d67df14938ed998]
link WAITING to STOPPED--><path d="M49.5241,518.5249 C38.6407,485.1071 24.4314,423.7034 47.5,378.6094 C84.3095,306.6554 174.424,265.8124 230.599,246.5374 " fill="none" id="WAITING-to-STOPPED" style="stroke:#383838;stroke-width:1.0;"/><polygon fill="#383838" points="235.59,244.8514,225.783,243.9443,230.8533,246.4526,228.345,251.523,235.59,244.8514" style="stroke:#383838;stroke-width:1.0;"/><text fill="#000000" font-family="monospace" font-size="13" font-weight="bold" lengthAdjust="spacing" textLength="32" x="48.5" y="392.6792">STOP</text><!--MD5=[6a3673ff49521e1ff5d6d247a82b4be7]
link WAITING_STOPPED to STOPPED--><path d="M560.952,518.4533 C566.567,512.9713 572.066,506.8979 576.5,500.6094 C605.521,459.4484 611.288,445.9264 621.5,396.6094 C633.219,340.0164 622.465,309.6414 576.5,274.6094 C538.202,245.4214 400.561,236.4914 326.491,233.7784 " fill="none" id="WAITING_STOPPED-to-STOPPED" style="stroke:#383838;stroke-width:1.0;"/><polygon fill="#383838" points="321.27,233.5944,330.1226,237.9108,326.2669,233.7716,330.4061,229.9158,321.27,233.5944" style="stroke:#383838;stroke-width:1.0;"/><text fill="#000000" font-family="monospace" font-size="13" font-weight="bold" lengthAdjust="spacing" textLength="232" x="625.5" y="392.6792">«timeout = {cycleWaitTime/2}»</text><!--MD5=[6a3673ff49521e1ff5d6d247a82b4be7]
link WAITING_STOPPED to STOPPED--><path d="M542.35,518.2909 C552.565,491.6099 564.151,448.1234 548.5,414.6094 C505.839,323.2564 391.568,270.8534 326.175,247.4704 " fill="none" id="WAITING_STOPPED-to-STOPPED-1" style="stroke:#383838;stroke-width:1.0;"/><polygon fill="#383838" points="321.165,245.7014,328.3207,252.4686,325.88,247.3654,330.9832,244.9246,321.165,245.7014" style="stroke:#383838;stroke-width:1.0;"/><text fill="#000000" font-family="monospace" font-size="13" font-weight="bold" lengthAdjust="spacing" textLength="56" x="538.5" y="392.6792">STOPPED</text><!--MD5=[049cead836d357585b6500a4a5ab2278]
link FLASHING to STOPPED--><path d="M188.635,310.5044 C186.321,298.8524 185.919,285.1464 192.5,274.6094 C201.274,260.5604 216.255,251.0834 231.279,244.7494 " fill="none" id="FLASHING-to-STOPPED" style="stroke:#383838;stroke-width:1.0;"/><polygon fill="#383838" points="235.937,242.8824,226.0949,242.5173,231.2958,244.7423,229.0708,249.9432,235.937,242.8824" style="stroke:#383838;stroke-width:1.0;"/><text fill="#000000" font-family="monospace" font-size="13" font-weight="bold" lengthAdjust="spacing" textLength="32" x="193.5" y="288.6792">STOP</text><!--MD5=[d73a05ceaee395197739b6abe23b85bd]
@startuml
skinparam monochrome true
skinparam StateFontName Helvetica
skinparam defaultFontName Monospaced
skinparam defaultFontStyle Bold
skinparam state {
    FontStyle Bold
}
state TrafficIntersectionFSM {
[*] - -> OFF
OFF - -> STOPPED : ON_OFF
STOPPED - -> OFF : ON_OFF
STOPPED - -> GOING : START
STOPPED - -> STOPPED : STOPPED
STOPPED - -> FLASHING : FLASH
GOING - -> STOPPING : <<timeout = {cycleTime}>>
GOING - -> STOPPING : SWITCH
GOING - -> WAITING_STOPPED : STOP
STOPPING - -> WAITING : STOPPED
STOPPING - -> STOPPING : SWITCH
STOPPING - -> WAITING_STOPPED : STOP
WAITING - -> GOING : <<timeout = {cycleWaitTime}>>
WAITING - -> WAITING : SWITCH
WAITING - -> STOPPED : STOP
WAITING_STOPPED - -> STOPPED : <<timeout = {cycleWaitTime/2}>>
WAITING_STOPPED - -> STOPPED : STOPPED
FLASHING - -> STOPPED : STOP
}
@enduml

PlantUML version 1.2021.7(Sun May 23 14:40:07 CAT 2021)
(GPL source distribution)
Java Runtime: OpenJDK Runtime Environment
JVM: OpenJDK 64-Bit Server VM
Default Encoding: Cp1252
Language: en
Country: ZA
--></g></svg>